;PTH Drill file created by EasyEDA 
M48
;Holesize 1 = 0.036 INCH
T01C0.036
;Holesize 2 = 0.046 INCH
T02C0.046
;Holesize 3 = 0.032 INCH
T03C0.032
;Holesize 4 = 0.030 INCH
T04C0.030
;Holesize 5 = 0.040 INCH
T05C0.040
;Holesize 6 = 0.024 INCH
T06C0.024
INCH,00.0000
%
G05
G90
T01
X015500Y006700
X016500Y006700
X017500Y006700
X018500Y006700
X019500Y006700
X020500Y006700
X021500Y006700
X022500Y006700
X023500Y006700
X024500Y006700
X025500Y006700
X026500Y006700
X027500Y006700
X028500Y006700
X029600Y006700
X015500Y012700
X016500Y012700
X017500Y012700
X018500Y012700
X019500Y012700
X020500Y012700
X021500Y012700
X022500Y012700
X023500Y012700
X024500Y012700
X025500Y012700
X026500Y012700
X027500Y012700
X028500Y012700
X029500Y012700
X009900Y014300
X008700Y003300
X006140Y003300
X008700Y001528
X006144Y001528
X008700Y003300
X006140Y003300
X008700Y001528
X006144Y001528
X007800Y004300
X005100Y002400
T02
X011619Y003800
X013580Y003800
X003980Y003900
X002019Y003900
X029980Y003800
X028019Y003800
X015819Y003800
X017780Y003800
T03
X021100Y003700
X022100Y003700
X023100Y003700
X024100Y003700
T04
X003400Y012700
X002400Y012700
X001400Y012700
X004400Y012700
X005400Y012700
X006400Y012700
X007400Y012700
X008400Y012700
X008400Y006700
X007400Y006700
X006400Y006700
X005400Y006700
X004400Y006700
X003400Y006700
X002400Y006700
X001400Y006700
T05
X009900Y014300
X010900Y014300
X011900Y014300
X012900Y014300
X013900Y014300
X014900Y014300
X015900Y014300
X016900Y014300
X017900Y014300
X018900Y014300
X019900Y014300
T06
X012900Y011300
X009900Y011300
M30
