G04 ---------------------------- Layer name :BOTTOM LAYER*
G04 easyEDA 0.1*
G04 Scale: 100 percent, Rotated: No, Reflected: No *
G04 Dimensions in inches *
G04 leading zeros omitted , absolute positions ,2 integer and 4 * 
%FSLAX24Y24*%
%MOIN*%
G90*
G70D02*

%ADD11C,0.051181*%
%ADD12C,0.031496*%
%ADD13C,0.023620*%
%ADD14C,0.019685*%
%ADD15C,0.039370*%
%ADD16C,0.078740*%
%ADD17R,0.070000X0.070000*%
%ADD18C,0.070000*%
%ADD20R,0.080000X0.080000*%
%ADD21C,0.080000*%
%ADD23R,0.078740X0.078740*%
%ADD25C,0.060000*%
%ADD27C,0.118110*%

%LPD*%
G36*
G01X31400Y0D02*
G01X100Y100D01*
G01X0Y15700D01*
G01X31496Y15700D01*
G01X31496Y15071D01*
G01X31400Y0D01*
G37*

%LPC*%
G36*
G01X16019Y4000D02*
G01X16415Y4000D01*
G01X16415Y4200D01*
G01X16406Y4259D01*
G01X16377Y4315D01*
G01X16335Y4357D01*
G01X16280Y4386D01*
G01X16219Y4396D01*
G01X16019Y4396D01*
G01X16019Y4000D01*
G37*
G36*
G01X1700Y411D02*
G01X1853Y430D01*
G01X1997Y480D01*
G01X2127Y561D01*
G01X2238Y671D01*
G01X2319Y801D01*
G01X2369Y946D01*
G01X2388Y1100D01*
G01X2369Y1253D01*
G01X2319Y1398D01*
G01X2238Y1528D01*
G01X2127Y1638D01*
G01X1997Y1719D01*
G01X1853Y1769D01*
G01X1700Y1788D01*
G01X1546Y1769D01*
G01X1402Y1719D01*
G01X1272Y1638D01*
G01X1161Y1528D01*
G01X1080Y1398D01*
G01X1030Y1253D01*
G01X1011Y1100D01*
G01X1030Y946D01*
G01X1080Y801D01*
G01X1161Y671D01*
G01X1272Y561D01*
G01X1402Y480D01*
G01X1546Y430D01*
G01X1700Y411D01*
G37*
G36*
G01X8200Y14011D02*
G01X8353Y14030D01*
G01X8497Y14080D01*
G01X8627Y14161D01*
G01X8738Y14271D01*
G01X8819Y14401D01*
G01X8869Y14546D01*
G01X8888Y14700D01*
G01X8869Y14853D01*
G01X8819Y14998D01*
G01X8738Y15128D01*
G01X8627Y15238D01*
G01X8497Y15319D01*
G01X8353Y15369D01*
G01X8200Y15388D01*
G01X8046Y15369D01*
G01X7902Y15319D01*
G01X7772Y15238D01*
G01X7661Y15128D01*
G01X7580Y14998D01*
G01X7530Y14853D01*
G01X7511Y14700D01*
G01X7530Y14546D01*
G01X7580Y14401D01*
G01X7661Y14271D01*
G01X7772Y14161D01*
G01X7902Y14080D01*
G01X8046Y14030D01*
G01X8200Y14011D01*
G37*
G36*
G01X15223Y4000D02*
G01X15619Y4000D01*
G01X15619Y4396D01*
G01X15419Y4396D01*
G01X15360Y4386D01*
G01X15303Y4357D01*
G01X15261Y4315D01*
G01X15234Y4259D01*
G01X15223Y4200D01*
G01X15223Y4000D01*
G37*
G36*
G01X1947Y3307D02*
G01X2092Y3307D01*
G01X2231Y3342D01*
G01X2357Y3409D01*
G01X2465Y3503D01*
G01X2547Y3623D01*
G01X2597Y3757D01*
G01X2615Y3900D01*
G01X2597Y4042D01*
G01X2547Y4176D01*
G01X2465Y4296D01*
G01X2357Y4390D01*
G01X2231Y4457D01*
G01X2092Y4492D01*
G01X1947Y4492D01*
G01X1807Y4457D01*
G01X1681Y4390D01*
G01X1573Y4296D01*
G01X1492Y4176D01*
G01X1442Y4042D01*
G01X1423Y3900D01*
G01X1442Y3757D01*
G01X1492Y3623D01*
G01X1573Y3503D01*
G01X1681Y3409D01*
G01X1807Y3342D01*
G01X1947Y3307D01*
G37*
G36*
G01X7931Y12850D02*
G01X8250Y12850D01*
G01X8250Y13171D01*
G01X8234Y13167D01*
G01X8114Y13105D01*
G01X8015Y13013D01*
G01X7946Y12898D01*
G01X7931Y12850D01*
G37*
G36*
G01X8550Y12850D02*
G01X8872Y12850D01*
G01X8823Y12957D01*
G01X8738Y13061D01*
G01X8627Y13140D01*
G01X8550Y13167D01*
G01X8550Y12850D01*
G37*
G36*
G01X8550Y12232D02*
G01X8627Y12259D01*
G01X8738Y12338D01*
G01X8823Y12442D01*
G01X8872Y12550D01*
G01X8550Y12550D01*
G01X8550Y12232D01*
G37*
G36*
G01X3580Y3303D02*
G01X4380Y3303D01*
G01X4439Y3313D01*
G01X4496Y3342D01*
G01X4538Y3384D01*
G01X4565Y3440D01*
G01X4576Y3500D01*
G01X4576Y4300D01*
G01X4565Y4359D01*
G01X4538Y4415D01*
G01X4496Y4457D01*
G01X4439Y4486D01*
G01X4380Y4496D01*
G01X3580Y4496D01*
G01X3519Y4486D01*
G01X3464Y4457D01*
G01X3422Y4415D01*
G01X3393Y4359D01*
G01X3384Y4300D01*
G01X3384Y3500D01*
G01X3393Y3440D01*
G01X3422Y3384D01*
G01X3464Y3342D01*
G01X3519Y3313D01*
G01X3580Y3303D01*
G37*
G36*
G01X8250Y12228D02*
G01X8250Y12550D01*
G01X7931Y12550D01*
G01X7946Y12501D01*
G01X8015Y12386D01*
G01X8114Y12294D01*
G01X8234Y12232D01*
G01X8250Y12228D01*
G37*
G36*
G01X3365Y12205D02*
G01X3500Y12213D01*
G01X3627Y12259D01*
G01X3738Y12338D01*
G01X3823Y12442D01*
G01X3877Y12565D01*
G01X3896Y12700D01*
G01X3877Y12834D01*
G01X3823Y12957D01*
G01X3738Y13061D01*
G01X3627Y13140D01*
G01X3500Y13186D01*
G01X3365Y13194D01*
G01X3234Y13167D01*
G01X3114Y13105D01*
G01X3015Y13013D01*
G01X2946Y12898D01*
G01X2907Y12767D01*
G01X2907Y12632D01*
G01X2946Y12501D01*
G01X3015Y12386D01*
G01X3114Y12294D01*
G01X3234Y12232D01*
G01X3365Y12205D01*
G37*
G36*
G01X3550Y6850D02*
G01X3872Y6850D01*
G01X3823Y6957D01*
G01X3738Y7061D01*
G01X3627Y7140D01*
G01X3550Y7167D01*
G01X3550Y6850D01*
G37*
G36*
G01X2365Y12205D02*
G01X2500Y12213D01*
G01X2627Y12259D01*
G01X2738Y12338D01*
G01X2823Y12442D01*
G01X2877Y12565D01*
G01X2896Y12700D01*
G01X2877Y12834D01*
G01X2823Y12957D01*
G01X2738Y13061D01*
G01X2627Y13140D01*
G01X2500Y13186D01*
G01X2365Y13194D01*
G01X2234Y13167D01*
G01X2114Y13105D01*
G01X2015Y13013D01*
G01X1946Y12898D01*
G01X1907Y12767D01*
G01X1907Y12632D01*
G01X1946Y12501D01*
G01X2015Y12386D01*
G01X2114Y12294D01*
G01X2234Y12232D01*
G01X2365Y12205D01*
G37*
G36*
G01X1365Y12205D02*
G01X1500Y12213D01*
G01X1627Y12259D01*
G01X1738Y12338D01*
G01X1823Y12442D01*
G01X1877Y12565D01*
G01X1896Y12700D01*
G01X1877Y12834D01*
G01X1823Y12957D01*
G01X1738Y13061D01*
G01X1627Y13140D01*
G01X1500Y13186D01*
G01X1365Y13194D01*
G01X1234Y13167D01*
G01X1114Y13105D01*
G01X1015Y13013D01*
G01X946Y12898D01*
G01X907Y12767D01*
G01X907Y12632D01*
G01X946Y12501D01*
G01X1015Y12386D01*
G01X1114Y12294D01*
G01X1234Y12232D01*
G01X1365Y12205D01*
G37*
G36*
G01X4365Y12205D02*
G01X4500Y12213D01*
G01X4627Y12259D01*
G01X4738Y12338D01*
G01X4823Y12442D01*
G01X4877Y12565D01*
G01X4896Y12700D01*
G01X4877Y12834D01*
G01X4823Y12957D01*
G01X4738Y13061D01*
G01X4627Y13140D01*
G01X4500Y13186D01*
G01X4365Y13194D01*
G01X4234Y13167D01*
G01X4114Y13105D01*
G01X4015Y13013D01*
G01X3946Y12898D01*
G01X3907Y12767D01*
G01X3907Y12632D01*
G01X3946Y12501D01*
G01X4015Y12386D01*
G01X4114Y12294D01*
G01X4234Y12232D01*
G01X4365Y12205D01*
G37*
G36*
G01X8000Y307D02*
G01X9700Y307D01*
G01X9761Y311D01*
G01X9822Y328D01*
G01X9877Y350D01*
G01X9930Y382D01*
G01X9977Y421D01*
G01X10464Y907D01*
G01X29200Y907D01*
G01X29250Y911D01*
G01X29300Y919D01*
G01X29347Y936D01*
G01X29393Y957D01*
G01X29435Y986D01*
G01X30235Y1586D01*
G01X30289Y1636D01*
G01X30334Y1694D01*
G01X30365Y1759D01*
G01X30385Y1830D01*
G01X30392Y1903D01*
G01X30377Y3203D01*
G01X30380Y3203D01*
G01X30439Y3213D01*
G01X30496Y3242D01*
G01X30538Y3284D01*
G01X30565Y3340D01*
G01X30576Y3400D01*
G01X30576Y4200D01*
G01X30565Y4259D01*
G01X30538Y4315D01*
G01X30496Y4357D01*
G01X30439Y4386D01*
G01X30380Y4396D01*
G01X29580Y4396D01*
G01X29519Y4386D01*
G01X29464Y4357D01*
G01X29422Y4315D01*
G01X29393Y4259D01*
G01X29384Y4200D01*
G01X29384Y3400D01*
G01X29393Y3340D01*
G01X29422Y3284D01*
G01X29464Y3242D01*
G01X29519Y3213D01*
G01X29580Y3203D01*
G01X29593Y3203D01*
G01X29606Y2096D01*
G01X29068Y1692D01*
G01X26947Y1692D01*
G01X28297Y3042D01*
G01X28338Y3090D01*
G01X28369Y3142D01*
G01X28392Y3198D01*
G01X28407Y3257D01*
G01X28411Y3319D01*
G01X28411Y3355D01*
G01X28465Y3403D01*
G01X28547Y3523D01*
G01X28597Y3657D01*
G01X28615Y3800D01*
G01X28597Y3942D01*
G01X28547Y4076D01*
G01X28465Y4196D01*
G01X28357Y4290D01*
G01X28231Y4357D01*
G01X28092Y4392D01*
G01X27947Y4392D01*
G01X27807Y4357D01*
G01X27681Y4290D01*
G01X27573Y4196D01*
G01X27492Y4076D01*
G01X27442Y3942D01*
G01X27423Y3800D01*
G01X27442Y3657D01*
G01X27492Y3523D01*
G01X27564Y3419D01*
G01X26435Y2292D01*
G01X16911Y2292D01*
G01X17827Y3207D01*
G01X17852Y3207D01*
G01X17992Y3242D01*
G01X18118Y3309D01*
G01X18226Y3403D01*
G01X18307Y3523D01*
G01X18357Y3657D01*
G01X18376Y3800D01*
G01X18357Y3942D01*
G01X18307Y4076D01*
G01X18226Y4196D01*
G01X18118Y4290D01*
G01X17992Y4357D01*
G01X17852Y4392D01*
G01X17707Y4392D01*
G01X17568Y4357D01*
G01X17442Y4290D01*
G01X17334Y4196D01*
G01X17252Y4076D01*
G01X17202Y3942D01*
G01X17189Y3850D01*
G01X16292Y2951D01*
G01X11288Y2951D01*
G01X8919Y5319D01*
G01X8888Y5348D01*
G01X9431Y5348D01*
G01X11023Y3755D01*
G01X11023Y3400D01*
G01X11034Y3340D01*
G01X11061Y3284D01*
G01X11103Y3242D01*
G01X11160Y3213D01*
G01X11219Y3203D01*
G01X12019Y3203D01*
G01X12080Y3213D01*
G01X12135Y3242D01*
G01X12177Y3284D01*
G01X12206Y3340D01*
G01X12215Y3400D01*
G01X12215Y4200D01*
G01X12206Y4259D01*
G01X12177Y4315D01*
G01X12135Y4357D01*
G01X12080Y4386D01*
G01X12019Y4396D01*
G01X11664Y4396D01*
G01X9939Y6119D01*
G01X9885Y6165D01*
G01X9826Y6201D01*
G01X9760Y6230D01*
G01X9689Y6246D01*
G01X9665Y6248D01*
G01X10127Y6248D01*
G01X13123Y3600D01*
G01X13023Y3600D01*
G01X13052Y3523D01*
G01X13134Y3403D01*
G01X13242Y3309D01*
G01X13368Y3242D01*
G01X13380Y3240D01*
G01X13380Y3398D01*
G01X13400Y3386D01*
G01X13535Y3350D01*
G01X13677Y3357D01*
G01X13780Y3398D01*
G01X13780Y3240D01*
G01X13792Y3242D01*
G01X13918Y3309D01*
G01X14026Y3403D01*
G01X14107Y3523D01*
G01X14135Y3600D01*
G01X13981Y3600D01*
G01X13993Y3619D01*
G01X14030Y3755D01*
G01X14022Y3898D01*
G01X13981Y4000D01*
G01X14135Y4000D01*
G01X14107Y4076D01*
G01X14026Y4196D01*
G01X13918Y4290D01*
G01X13792Y4357D01*
G01X13780Y4359D01*
G01X13780Y4226D01*
G01X10600Y7038D01*
G01X10547Y7078D01*
G01X10489Y7109D01*
G01X10430Y7134D01*
G01X10365Y7148D01*
G01X10300Y7151D01*
G01X8593Y7151D01*
G01X8550Y7167D01*
G01X8550Y7151D01*
G01X8400Y7151D01*
G01X8260Y7130D01*
G01X8250Y7123D01*
G01X8250Y7171D01*
G01X8234Y7167D01*
G01X8114Y7105D01*
G01X8015Y7013D01*
G01X7946Y6898D01*
G01X7931Y6850D01*
G01X7976Y6850D01*
G01X7969Y6840D01*
G01X7947Y6700D01*
G01X7969Y6559D01*
G01X7976Y6550D01*
G01X7931Y6550D01*
G01X7946Y6501D01*
G01X8015Y6386D01*
G01X8114Y6294D01*
G01X8196Y6251D01*
G01X7606Y6251D01*
G01X7627Y6259D01*
G01X7738Y6338D01*
G01X7823Y6442D01*
G01X7877Y6565D01*
G01X7896Y6700D01*
G01X7877Y6834D01*
G01X7823Y6957D01*
G01X7738Y7061D01*
G01X7627Y7140D01*
G01X7500Y7186D01*
G01X7365Y7194D01*
G01X7234Y7167D01*
G01X7114Y7105D01*
G01X7015Y7013D01*
G01X6946Y6898D01*
G01X6907Y6767D01*
G01X6907Y6632D01*
G01X6946Y6501D01*
G01X7015Y6386D01*
G01X7114Y6294D01*
G01X7196Y6251D01*
G01X6606Y6251D01*
G01X6627Y6259D01*
G01X6738Y6338D01*
G01X6823Y6442D01*
G01X6877Y6565D01*
G01X6896Y6700D01*
G01X6877Y6834D01*
G01X6823Y6957D01*
G01X6738Y7061D01*
G01X6627Y7140D01*
G01X6500Y7186D01*
G01X6365Y7194D01*
G01X6234Y7167D01*
G01X6114Y7105D01*
G01X6015Y7013D01*
G01X5946Y6898D01*
G01X5907Y6767D01*
G01X5907Y6632D01*
G01X5946Y6501D01*
G01X6015Y6386D01*
G01X6114Y6294D01*
G01X6196Y6251D01*
G01X5606Y6251D01*
G01X5627Y6259D01*
G01X5738Y6338D01*
G01X5823Y6442D01*
G01X5877Y6565D01*
G01X5896Y6700D01*
G01X5877Y6834D01*
G01X5823Y6957D01*
G01X5738Y7061D01*
G01X5627Y7140D01*
G01X5500Y7186D01*
G01X5365Y7194D01*
G01X5234Y7167D01*
G01X5114Y7105D01*
G01X5015Y7013D01*
G01X4946Y6898D01*
G01X4907Y6767D01*
G01X4907Y6632D01*
G01X4946Y6501D01*
G01X5015Y6386D01*
G01X5114Y6294D01*
G01X5196Y6251D01*
G01X4606Y6251D01*
G01X4627Y6259D01*
G01X4738Y6338D01*
G01X4823Y6442D01*
G01X4877Y6565D01*
G01X4896Y6700D01*
G01X4877Y6834D01*
G01X4823Y6957D01*
G01X4738Y7061D01*
G01X4627Y7140D01*
G01X4500Y7186D01*
G01X4365Y7194D01*
G01X4234Y7167D01*
G01X4114Y7105D01*
G01X4015Y7013D01*
G01X3946Y6898D01*
G01X3907Y6767D01*
G01X3907Y6632D01*
G01X3946Y6501D01*
G01X4015Y6386D01*
G01X4114Y6294D01*
G01X4196Y6251D01*
G01X3606Y6251D01*
G01X3627Y6259D01*
G01X3738Y6338D01*
G01X3823Y6442D01*
G01X3872Y6550D01*
G01X3550Y6550D01*
G01X3550Y6251D01*
G01X3250Y6251D01*
G01X3250Y6550D01*
G01X2931Y6550D01*
G01X2946Y6501D01*
G01X3015Y6386D01*
G01X3114Y6294D01*
G01X3196Y6251D01*
G01X3088Y6251D01*
G01X2852Y6488D01*
G01X2852Y6505D01*
G01X2877Y6565D01*
G01X2885Y6630D01*
G01X3106Y6850D01*
G01X3250Y6850D01*
G01X3250Y6994D01*
G01X7164Y10907D01*
G01X9465Y10907D01*
G01X9523Y10846D01*
G01X9647Y10765D01*
G01X9789Y10719D01*
G01X9938Y10711D01*
G01X10081Y10738D01*
G01X10215Y10801D01*
G01X10330Y10896D01*
G01X10418Y11015D01*
G01X10472Y11153D01*
G01X10489Y11300D01*
G01X10472Y11446D01*
G01X10418Y11584D01*
G01X10330Y11703D01*
G01X10215Y11798D01*
G01X10081Y11861D01*
G01X9938Y11888D01*
G01X9789Y11880D01*
G01X9647Y11834D01*
G01X9523Y11753D01*
G01X9465Y11692D01*
G01X7000Y11692D01*
G01X6938Y11688D01*
G01X6877Y11671D01*
G01X6822Y11650D01*
G01X6769Y11617D01*
G01X6722Y11578D01*
G01X2331Y7188D01*
G01X2234Y7167D01*
G01X2114Y7105D01*
G01X2015Y7013D01*
G01X1946Y6898D01*
G01X1907Y6767D01*
G01X1907Y6632D01*
G01X1946Y6501D01*
G01X1947Y6498D01*
G01X1947Y6300D01*
G01X1953Y6230D01*
G01X1969Y6159D01*
G01X1997Y6094D01*
G01X2034Y6034D01*
G01X2080Y5980D01*
G01X2580Y5480D01*
G01X2611Y5451D01*
G01X2288Y5451D01*
G01X1852Y5888D01*
G01X1852Y6505D01*
G01X1877Y6565D01*
G01X1896Y6700D01*
G01X1877Y6834D01*
G01X1823Y6957D01*
G01X1738Y7061D01*
G01X1627Y7140D01*
G01X1500Y7186D01*
G01X1365Y7194D01*
G01X1234Y7167D01*
G01X1114Y7105D01*
G01X1015Y7013D01*
G01X946Y6898D01*
G01X907Y6767D01*
G01X907Y6632D01*
G01X946Y6501D01*
G01X947Y6498D01*
G01X947Y5700D01*
G01X953Y5630D01*
G01X969Y5559D01*
G01X997Y5494D01*
G01X1034Y5434D01*
G01X1080Y5380D01*
G01X1780Y4680D01*
G01X1834Y4634D01*
G01X1893Y4598D01*
G01X1960Y4569D01*
G01X2030Y4553D01*
G01X2100Y4548D01*
G01X7376Y4548D01*
G01X7346Y4498D01*
G01X7307Y4367D01*
G01X7307Y4363D01*
G01X7222Y4278D01*
G01X7181Y4230D01*
G01X7150Y4178D01*
G01X7127Y4121D01*
G01X7111Y4061D01*
G01X7107Y4000D01*
G01X7107Y2800D01*
G01X7111Y2738D01*
G01X7114Y2728D01*
G01X7077Y2750D01*
G01X7022Y2771D01*
G01X6961Y2788D01*
G01X6900Y2792D01*
G01X6734Y2792D01*
G01X6776Y2838D01*
G01X6857Y2980D01*
G01X6907Y3136D01*
G01X6926Y3300D01*
G01X6907Y3463D01*
G01X6857Y3619D01*
G01X6776Y3761D01*
G01X6665Y3884D01*
G01X6534Y3980D01*
G01X6381Y4048D01*
G01X6222Y4082D01*
G01X6057Y4082D01*
G01X5897Y4048D01*
G01X5746Y3980D01*
G01X5614Y3884D01*
G01X5503Y3761D01*
G01X5422Y3619D01*
G01X5372Y3463D01*
G01X5353Y3300D01*
G01X5372Y3136D01*
G01X5422Y2980D01*
G01X5503Y2838D01*
G01X5546Y2792D01*
G01X5396Y2792D01*
G01X5327Y2840D01*
G01X5200Y2886D01*
G01X5065Y2894D01*
G01X4934Y2867D01*
G01X4814Y2805D01*
G01X4715Y2713D01*
G01X4646Y2598D01*
G01X4607Y2467D01*
G01X4607Y2332D01*
G01X4646Y2201D01*
G01X4715Y2086D01*
G01X4814Y1994D01*
G01X4934Y1932D01*
G01X5065Y1905D01*
G01X5200Y1913D01*
G01X5327Y1959D01*
G01X5396Y2007D01*
G01X5523Y2007D01*
G01X5507Y1990D01*
G01X5426Y1848D01*
G01X5376Y1692D01*
G01X5357Y1528D01*
G01X5376Y1363D01*
G01X5426Y1207D01*
G01X5507Y1065D01*
G01X5618Y944D01*
G01X5750Y848D01*
G01X5902Y780D01*
G01X6061Y746D01*
G01X6226Y746D01*
G01X6385Y780D01*
G01X6538Y848D01*
G01X6669Y944D01*
G01X6780Y1065D01*
G01X6861Y1207D01*
G01X6911Y1363D01*
G01X6930Y1528D01*
G01X6911Y1692D01*
G01X6861Y1848D01*
G01X6815Y1928D01*
G01X7107Y1636D01*
G01X7107Y1200D01*
G01X7111Y1138D01*
G01X7127Y1078D01*
G01X7150Y1021D01*
G01X7181Y969D01*
G01X7222Y921D01*
G01X7722Y421D01*
G01X7769Y382D01*
G01X7822Y350D01*
G01X7877Y328D01*
G01X7938Y311D01*
G01X8000Y307D01*
G37*
G36*
G01X5365Y12205D02*
G01X5500Y12213D01*
G01X5627Y12259D01*
G01X5738Y12338D01*
G01X5823Y12442D01*
G01X5877Y12565D01*
G01X5896Y12700D01*
G01X5877Y12834D01*
G01X5823Y12957D01*
G01X5738Y13061D01*
G01X5627Y13140D01*
G01X5500Y13186D01*
G01X5365Y13194D01*
G01X5234Y13167D01*
G01X5114Y13105D01*
G01X5015Y13013D01*
G01X4946Y12898D01*
G01X4907Y12767D01*
G01X4907Y12632D01*
G01X4946Y12501D01*
G01X5015Y12386D01*
G01X5114Y12294D01*
G01X5234Y12232D01*
G01X5365Y12205D01*
G37*
G36*
G01X20706Y3111D02*
G01X21492Y3111D01*
G01X21552Y3121D01*
G01X21607Y3150D01*
G01X21650Y3192D01*
G01X21677Y3248D01*
G01X21684Y3288D01*
G01X21723Y3246D01*
G01X21847Y3165D01*
G01X21903Y3148D01*
G01X21903Y3503D01*
G01X21688Y3503D01*
G01X21688Y3896D01*
G01X21903Y3896D01*
G01X21903Y4251D01*
G01X21847Y4234D01*
G01X21723Y4153D01*
G01X21684Y4111D01*
G01X21677Y4153D01*
G01X21650Y4209D01*
G01X21607Y4251D01*
G01X21552Y4280D01*
G01X21492Y4290D01*
G01X20706Y4290D01*
G01X20646Y4280D01*
G01X20589Y4251D01*
G01X20547Y4209D01*
G01X20519Y4153D01*
G01X20510Y4094D01*
G01X20510Y3307D01*
G01X20519Y3248D01*
G01X20547Y3192D01*
G01X20589Y3150D01*
G01X20646Y3121D01*
G01X20706Y3111D01*
G37*
G36*
G01X6365Y12205D02*
G01X6500Y12213D01*
G01X6627Y12259D01*
G01X6738Y12338D01*
G01X6823Y12442D01*
G01X6877Y12565D01*
G01X6896Y12700D01*
G01X6877Y12834D01*
G01X6823Y12957D01*
G01X6738Y13061D01*
G01X6627Y13140D01*
G01X6500Y13186D01*
G01X6365Y13194D01*
G01X6234Y13167D01*
G01X6114Y13105D01*
G01X6015Y13013D01*
G01X5946Y12898D01*
G01X5907Y12767D01*
G01X5907Y12632D01*
G01X5946Y12501D01*
G01X6015Y12386D01*
G01X6114Y12294D01*
G01X6234Y12232D01*
G01X6365Y12205D01*
G37*
G36*
G01X7365Y12205D02*
G01X7500Y12213D01*
G01X7627Y12259D01*
G01X7738Y12338D01*
G01X7823Y12442D01*
G01X7877Y12565D01*
G01X7896Y12700D01*
G01X7877Y12834D01*
G01X7823Y12957D01*
G01X7738Y13061D01*
G01X7627Y13140D01*
G01X7500Y13186D01*
G01X7365Y13194D01*
G01X7234Y13167D01*
G01X7114Y13105D01*
G01X7015Y13013D01*
G01X6946Y12898D01*
G01X6907Y12767D01*
G01X6907Y12632D01*
G01X6946Y12501D01*
G01X7015Y12386D01*
G01X7114Y12294D01*
G01X7234Y12232D01*
G01X7365Y12205D01*
G37*
G36*
G01X16019Y3203D02*
G01X16219Y3203D01*
G01X16280Y3213D01*
G01X16335Y3242D01*
G01X16377Y3284D01*
G01X16406Y3340D01*
G01X16415Y3400D01*
G01X16415Y3600D01*
G01X16019Y3600D01*
G01X16019Y3203D01*
G37*
G36*
G01X15419Y3203D02*
G01X15619Y3203D01*
G01X15619Y3600D01*
G01X15223Y3600D01*
G01X15223Y3400D01*
G01X15234Y3340D01*
G01X15261Y3284D01*
G01X15303Y3242D01*
G01X15360Y3213D01*
G01X15419Y3203D01*
G37*
G36*
G01X30500Y211D02*
G01X30653Y230D01*
G01X30797Y280D01*
G01X30927Y361D01*
G01X31038Y471D01*
G01X31119Y601D01*
G01X31169Y746D01*
G01X31188Y900D01*
G01X31169Y1053D01*
G01X31119Y1198D01*
G01X31038Y1328D01*
G01X30927Y1438D01*
G01X30797Y1519D01*
G01X30653Y1569D01*
G01X30500Y1588D01*
G01X30346Y1569D01*
G01X30202Y1519D01*
G01X30072Y1438D01*
G01X29961Y1328D01*
G01X29880Y1198D01*
G01X29830Y1053D01*
G01X29811Y900D01*
G01X29830Y746D01*
G01X29880Y601D01*
G01X29961Y471D01*
G01X30072Y361D01*
G01X30202Y280D01*
G01X30346Y230D01*
G01X30500Y211D01*
G37*
G36*
G01X23138Y3111D02*
G01X23281Y3138D01*
G01X23415Y3201D01*
G01X23530Y3296D01*
G01X23600Y3392D01*
G01X23622Y3353D01*
G01X23723Y3246D01*
G01X23847Y3165D01*
G01X23989Y3119D01*
G01X24138Y3111D01*
G01X24281Y3138D01*
G01X24415Y3201D01*
G01X24530Y3296D01*
G01X24618Y3415D01*
G01X24672Y3553D01*
G01X24689Y3700D01*
G01X24672Y3846D01*
G01X24618Y3984D01*
G01X24530Y4103D01*
G01X24453Y4165D01*
G01X24453Y4300D01*
G01X24450Y4355D01*
G01X24435Y4409D01*
G01X24415Y4459D01*
G01X24385Y4507D01*
G01X24350Y4550D01*
G01X24150Y4750D01*
G01X24107Y4786D01*
G01X24060Y4815D01*
G01X24010Y4836D01*
G01X23956Y4850D01*
G01X23900Y4853D01*
G01X23346Y4853D01*
G01X22650Y5550D01*
G01X22607Y5586D01*
G01X22560Y5615D01*
G01X22510Y5636D01*
G01X22456Y5650D01*
G01X22400Y5653D01*
G01X21497Y5653D01*
G01X21722Y5878D01*
G01X21753Y5915D01*
G01X21780Y5957D01*
G01X21797Y6001D01*
G01X21810Y6050D01*
G01X21814Y6100D01*
G01X21814Y6257D01*
G01X21885Y6313D01*
G01X21972Y6428D01*
G01X22000Y6492D01*
G01X22027Y6428D01*
G01X22114Y6313D01*
G01X22227Y6228D01*
G01X22357Y6171D01*
G01X22500Y6153D01*
G01X22642Y6171D01*
G01X22773Y6228D01*
G01X22885Y6313D01*
G01X22972Y6428D01*
G01X23000Y6492D01*
G01X23027Y6428D01*
G01X23114Y6313D01*
G01X23227Y6228D01*
G01X23357Y6171D01*
G01X23500Y6153D01*
G01X23642Y6171D01*
G01X23773Y6228D01*
G01X23885Y6313D01*
G01X23972Y6428D01*
G01X24000Y6492D01*
G01X24027Y6428D01*
G01X24114Y6313D01*
G01X24227Y6228D01*
G01X24357Y6171D01*
G01X24500Y6153D01*
G01X24642Y6171D01*
G01X24773Y6228D01*
G01X24885Y6313D01*
G01X24972Y6428D01*
G01X25000Y6492D01*
G01X25027Y6428D01*
G01X25114Y6313D01*
G01X25227Y6228D01*
G01X25357Y6171D01*
G01X25500Y6153D01*
G01X25642Y6171D01*
G01X25773Y6228D01*
G01X25885Y6313D01*
G01X25972Y6428D01*
G01X26000Y6492D01*
G01X26027Y6428D01*
G01X26114Y6313D01*
G01X26227Y6228D01*
G01X26357Y6171D01*
G01X26500Y6153D01*
G01X26642Y6171D01*
G01X26773Y6228D01*
G01X26885Y6313D01*
G01X26972Y6428D01*
G01X27000Y6492D01*
G01X27027Y6428D01*
G01X27114Y6313D01*
G01X27227Y6228D01*
G01X27357Y6171D01*
G01X27500Y6153D01*
G01X27642Y6171D01*
G01X27773Y6228D01*
G01X27885Y6313D01*
G01X27972Y6428D01*
G01X28000Y6492D01*
G01X28027Y6428D01*
G01X28114Y6313D01*
G01X28227Y6228D01*
G01X28357Y6171D01*
G01X28500Y6153D01*
G01X28642Y6171D01*
G01X28773Y6228D01*
G01X28885Y6313D01*
G01X28972Y6428D01*
G01X29027Y6557D01*
G01X29046Y6700D01*
G01X29027Y6842D01*
G01X28972Y6973D01*
G01X28885Y7086D01*
G01X28772Y7171D01*
G01X28642Y7228D01*
G01X28500Y7246D01*
G01X28357Y7228D01*
G01X28227Y7171D01*
G01X28114Y7086D01*
G01X28027Y6973D01*
G01X28000Y6907D01*
G01X27972Y6973D01*
G01X27885Y7086D01*
G01X27772Y7171D01*
G01X27642Y7228D01*
G01X27500Y7246D01*
G01X27357Y7228D01*
G01X27227Y7171D01*
G01X27114Y7086D01*
G01X27027Y6973D01*
G01X27000Y6907D01*
G01X26972Y6973D01*
G01X26885Y7086D01*
G01X26772Y7171D01*
G01X26642Y7228D01*
G01X26500Y7246D01*
G01X26357Y7228D01*
G01X26227Y7171D01*
G01X26114Y7086D01*
G01X26027Y6973D01*
G01X26000Y6907D01*
G01X25972Y6973D01*
G01X25885Y7086D01*
G01X25772Y7171D01*
G01X25642Y7228D01*
G01X25500Y7246D01*
G01X25357Y7228D01*
G01X25227Y7171D01*
G01X25114Y7086D01*
G01X25027Y6973D01*
G01X25000Y6907D01*
G01X24972Y6973D01*
G01X24885Y7086D01*
G01X24772Y7171D01*
G01X24642Y7228D01*
G01X24500Y7246D01*
G01X24357Y7228D01*
G01X24227Y7171D01*
G01X24114Y7086D01*
G01X24027Y6973D01*
G01X24000Y6907D01*
G01X23972Y6973D01*
G01X23885Y7086D01*
G01X23772Y7171D01*
G01X23642Y7228D01*
G01X23500Y7246D01*
G01X23357Y7228D01*
G01X23227Y7171D01*
G01X23114Y7086D01*
G01X23027Y6973D01*
G01X23000Y6907D01*
G01X22972Y6973D01*
G01X22885Y7086D01*
G01X22772Y7171D01*
G01X22642Y7228D01*
G01X22500Y7246D01*
G01X22357Y7228D01*
G01X22227Y7171D01*
G01X22114Y7086D01*
G01X22027Y6973D01*
G01X22000Y6907D01*
G01X21972Y6973D01*
G01X21885Y7086D01*
G01X21772Y7171D01*
G01X21642Y7228D01*
G01X21500Y7246D01*
G01X21357Y7228D01*
G01X21293Y7200D01*
G01X21293Y10200D01*
G01X21289Y10246D01*
G01X21280Y10290D01*
G01X21261Y10334D01*
G01X21238Y10371D01*
G01X21207Y10407D01*
G01X19456Y12159D01*
G01X19500Y12153D01*
G01X19642Y12171D01*
G01X19773Y12228D01*
G01X19885Y12313D01*
G01X19972Y12428D01*
G01X20000Y12492D01*
G01X20027Y12428D01*
G01X20114Y12313D01*
G01X20227Y12228D01*
G01X20357Y12171D01*
G01X20500Y12153D01*
G01X20642Y12171D01*
G01X20773Y12228D01*
G01X20885Y12313D01*
G01X20972Y12428D01*
G01X21000Y12492D01*
G01X21027Y12428D01*
G01X21114Y12313D01*
G01X21227Y12228D01*
G01X21357Y12171D01*
G01X21500Y12153D01*
G01X21642Y12171D01*
G01X21773Y12228D01*
G01X21885Y12313D01*
G01X21972Y12428D01*
G01X22000Y12492D01*
G01X22027Y12428D01*
G01X22114Y12313D01*
G01X22227Y12228D01*
G01X22357Y12171D01*
G01X22500Y12153D01*
G01X22642Y12171D01*
G01X22773Y12228D01*
G01X22885Y12313D01*
G01X22972Y12428D01*
G01X23000Y12492D01*
G01X23027Y12428D01*
G01X23114Y12313D01*
G01X23227Y12228D01*
G01X23357Y12171D01*
G01X23500Y12153D01*
G01X23642Y12171D01*
G01X23773Y12228D01*
G01X23885Y12313D01*
G01X23972Y12428D01*
G01X24000Y12492D01*
G01X24027Y12428D01*
G01X24114Y12313D01*
G01X24227Y12228D01*
G01X24357Y12171D01*
G01X24500Y12153D01*
G01X24642Y12171D01*
G01X24773Y12228D01*
G01X24885Y12313D01*
G01X24972Y12428D01*
G01X25000Y12492D01*
G01X25027Y12428D01*
G01X25114Y12313D01*
G01X25227Y12228D01*
G01X25357Y12171D01*
G01X25500Y12153D01*
G01X25642Y12171D01*
G01X25773Y12228D01*
G01X25885Y12313D01*
G01X25972Y12428D01*
G01X26000Y12492D01*
G01X26027Y12428D01*
G01X26114Y12313D01*
G01X26227Y12228D01*
G01X26357Y12171D01*
G01X26500Y12153D01*
G01X26642Y12171D01*
G01X26773Y12228D01*
G01X26885Y12313D01*
G01X26972Y12428D01*
G01X27000Y12492D01*
G01X27027Y12428D01*
G01X27114Y12313D01*
G01X27227Y12228D01*
G01X27357Y12171D01*
G01X27500Y12153D01*
G01X27642Y12171D01*
G01X27773Y12228D01*
G01X27885Y12313D01*
G01X27972Y12428D01*
G01X28000Y12492D01*
G01X28027Y12428D01*
G01X28114Y12313D01*
G01X28227Y12228D01*
G01X28357Y12171D01*
G01X28500Y12153D01*
G01X28642Y12171D01*
G01X28773Y12228D01*
G01X28885Y12313D01*
G01X28972Y12428D01*
G01X29000Y12492D01*
G01X29027Y12428D01*
G01X29114Y12313D01*
G01X29227Y12228D01*
G01X29357Y12171D01*
G01X29500Y12153D01*
G01X29642Y12171D01*
G01X29773Y12228D01*
G01X29885Y12313D01*
G01X29972Y12428D01*
G01X30027Y12557D01*
G01X30046Y12700D01*
G01X30027Y12842D01*
G01X29972Y12973D01*
G01X29885Y13086D01*
G01X29772Y13171D01*
G01X29642Y13228D01*
G01X29500Y13246D01*
G01X29357Y13228D01*
G01X29227Y13171D01*
G01X29114Y13086D01*
G01X29027Y12973D01*
G01X29000Y12907D01*
G01X28972Y12973D01*
G01X28885Y13086D01*
G01X28772Y13171D01*
G01X28642Y13228D01*
G01X28500Y13246D01*
G01X28357Y13228D01*
G01X28227Y13171D01*
G01X28114Y13086D01*
G01X28027Y12973D01*
G01X28000Y12907D01*
G01X27972Y12973D01*
G01X27885Y13086D01*
G01X27772Y13171D01*
G01X27642Y13228D01*
G01X27500Y13246D01*
G01X27357Y13228D01*
G01X27227Y13171D01*
G01X27114Y13086D01*
G01X27027Y12973D01*
G01X27000Y12907D01*
G01X26972Y12973D01*
G01X26885Y13086D01*
G01X26772Y13171D01*
G01X26642Y13228D01*
G01X26500Y13246D01*
G01X26357Y13228D01*
G01X26227Y13171D01*
G01X26114Y13086D01*
G01X26027Y12973D01*
G01X26000Y12907D01*
G01X25972Y12973D01*
G01X25885Y13086D01*
G01X25772Y13171D01*
G01X25642Y13228D01*
G01X25500Y13246D01*
G01X25357Y13228D01*
G01X25227Y13171D01*
G01X25114Y13086D01*
G01X25027Y12973D01*
G01X25000Y12907D01*
G01X24972Y12973D01*
G01X24885Y13086D01*
G01X24772Y13171D01*
G01X24642Y13228D01*
G01X24500Y13246D01*
G01X24357Y13228D01*
G01X24227Y13171D01*
G01X24114Y13086D01*
G01X24027Y12973D01*
G01X24000Y12907D01*
G01X23972Y12973D01*
G01X23885Y13086D01*
G01X23772Y13171D01*
G01X23642Y13228D01*
G01X23500Y13246D01*
G01X23357Y13228D01*
G01X23227Y13171D01*
G01X23114Y13086D01*
G01X23027Y12973D01*
G01X23000Y12907D01*
G01X22972Y12973D01*
G01X22885Y13086D01*
G01X22772Y13171D01*
G01X22642Y13228D01*
G01X22500Y13246D01*
G01X22357Y13228D01*
G01X22227Y13171D01*
G01X22114Y13086D01*
G01X22027Y12973D01*
G01X22000Y12907D01*
G01X21972Y12973D01*
G01X21885Y13086D01*
G01X21772Y13171D01*
G01X21642Y13228D01*
G01X21500Y13246D01*
G01X21357Y13228D01*
G01X21227Y13171D01*
G01X21114Y13086D01*
G01X21027Y12973D01*
G01X21000Y12907D01*
G01X20972Y12973D01*
G01X20885Y13086D01*
G01X20772Y13171D01*
G01X20642Y13228D01*
G01X20500Y13246D01*
G01X20357Y13228D01*
G01X20227Y13171D01*
G01X20114Y13086D01*
G01X20027Y12973D01*
G01X20000Y12907D01*
G01X19972Y12973D01*
G01X19885Y13086D01*
G01X19772Y13171D01*
G01X19642Y13228D01*
G01X19500Y13246D01*
G01X19357Y13228D01*
G01X19293Y13200D01*
G01X19293Y13657D01*
G01X19339Y13726D01*
G01X19356Y13753D01*
G01X19361Y13767D01*
G01X19365Y13784D01*
G01X19369Y13798D01*
G01X19392Y13911D01*
G01X19393Y13919D01*
G01X19393Y13928D01*
G01X19396Y13936D01*
G01X19396Y14663D01*
G01X19393Y14671D01*
G01X19393Y14680D01*
G01X19392Y14688D01*
G01X19369Y14801D01*
G01X19365Y14815D01*
G01X19361Y14832D01*
G01X19356Y14846D01*
G01X19443Y14846D01*
G01X19438Y14832D01*
G01X19434Y14815D01*
G01X19430Y14801D01*
G01X19407Y14688D01*
G01X19406Y14680D01*
G01X19406Y14671D01*
G01X19403Y14663D01*
G01X19403Y13936D01*
G01X19406Y13928D01*
G01X19406Y13919D01*
G01X19407Y13911D01*
G01X19430Y13798D01*
G01X19434Y13784D01*
G01X19438Y13767D01*
G01X19443Y13753D01*
G01X19460Y13726D01*
G01X19526Y13628D01*
G01X19534Y13615D01*
G01X19543Y13605D01*
G01X19553Y13594D01*
G01X19565Y13586D01*
G01X19576Y13576D01*
G01X19672Y13509D01*
G01X19685Y13501D01*
G01X19702Y13494D01*
G01X19715Y13488D01*
G01X19747Y13480D01*
G01X19864Y13457D01*
G01X19892Y13453D01*
G01X19907Y13453D01*
G01X19922Y13455D01*
G01X19938Y13457D01*
G01X20052Y13480D01*
G01X20065Y13484D01*
G01X20081Y13488D01*
G01X20096Y13494D01*
G01X20123Y13509D01*
G01X20222Y13576D01*
G01X20234Y13584D01*
G01X20246Y13594D01*
G01X20256Y13603D01*
G01X20265Y13615D01*
G01X20273Y13628D01*
G01X20339Y13726D01*
G01X20356Y13753D01*
G01X20361Y13767D01*
G01X20365Y13784D01*
G01X20369Y13798D01*
G01X20392Y13911D01*
G01X20393Y13919D01*
G01X20393Y13928D01*
G01X20396Y13936D01*
G01X20396Y14663D01*
G01X20393Y14671D01*
G01X20393Y14680D01*
G01X20392Y14688D01*
G01X20369Y14801D01*
G01X20365Y14815D01*
G01X20361Y14832D01*
G01X20356Y14846D01*
G01X27984Y14846D01*
G01X27972Y14838D01*
G01X27861Y14728D01*
G01X27780Y14598D01*
G01X27730Y14453D01*
G01X27711Y14300D01*
G01X27730Y14146D01*
G01X27780Y14001D01*
G01X27861Y13871D01*
G01X27972Y13761D01*
G01X28102Y13680D01*
G01X28246Y13630D01*
G01X28400Y13611D01*
G01X28553Y13630D01*
G01X28697Y13680D01*
G01X28827Y13761D01*
G01X28938Y13871D01*
G01X29019Y14001D01*
G01X29069Y14146D01*
G01X29088Y14300D01*
G01X29069Y14453D01*
G01X29019Y14598D01*
G01X28938Y14728D01*
G01X28827Y14838D01*
G01X28815Y14846D01*
G01X30153Y14846D01*
G01X30246Y14753D01*
G01X30246Y7846D01*
G01X29639Y7240D01*
G01X29600Y7246D01*
G01X29457Y7228D01*
G01X29327Y7171D01*
G01X29214Y7086D01*
G01X29127Y6973D01*
G01X29072Y6842D01*
G01X29053Y6700D01*
G01X29072Y6557D01*
G01X29127Y6428D01*
G01X29214Y6313D01*
G01X29327Y6228D01*
G01X29457Y6171D01*
G01X29600Y6153D01*
G01X29742Y6171D01*
G01X29873Y6228D01*
G01X29985Y6313D01*
G01X30072Y6428D01*
G01X30127Y6557D01*
G01X30146Y6700D01*
G01X30139Y6740D01*
G01X30850Y7450D01*
G01X30885Y7492D01*
G01X30915Y7540D01*
G01X30935Y7590D01*
G01X30950Y7644D01*
G01X30953Y7700D01*
G01X30953Y14900D01*
G01X30950Y14955D01*
G01X30935Y15009D01*
G01X30915Y15059D01*
G01X30885Y15107D01*
G01X30850Y15150D01*
G01X30550Y15450D01*
G01X30507Y15486D01*
G01X30460Y15515D01*
G01X30410Y15536D01*
G01X30356Y15550D01*
G01X30300Y15553D01*
G01X10700Y15553D01*
G01X10643Y15550D01*
G01X10589Y15536D01*
G01X10539Y15515D01*
G01X10492Y15486D01*
G01X10450Y15450D01*
G01X10102Y15101D01*
G01X10096Y15105D01*
G01X10081Y15111D01*
G01X10065Y15115D01*
G01X10052Y15119D01*
G01X9938Y15142D01*
G01X9922Y15144D01*
G01X9907Y15146D01*
G01X9892Y15146D01*
G01X9864Y15142D01*
G01X9747Y15119D01*
G01X9715Y15111D01*
G01X9702Y15105D01*
G01X9685Y15098D01*
G01X9672Y15090D01*
G01X9576Y15023D01*
G01X9565Y15013D01*
G01X9553Y15005D01*
G01X9543Y14994D01*
G01X9534Y14984D01*
G01X9526Y14971D01*
G01X9460Y14873D01*
G01X9443Y14846D01*
G01X9438Y14832D01*
G01X9434Y14815D01*
G01X9430Y14801D01*
G01X9407Y14688D01*
G01X9406Y14680D01*
G01X9406Y14671D01*
G01X9403Y14663D01*
G01X9403Y13936D01*
G01X9406Y13928D01*
G01X9406Y13919D01*
G01X9407Y13911D01*
G01X9430Y13798D01*
G01X9434Y13784D01*
G01X9438Y13767D01*
G01X9443Y13753D01*
G01X9460Y13726D01*
G01X9526Y13628D01*
G01X9534Y13615D01*
G01X9543Y13605D01*
G01X9553Y13594D01*
G01X9565Y13586D01*
G01X9576Y13576D01*
G01X9672Y13509D01*
G01X9685Y13501D01*
G01X9702Y13494D01*
G01X9715Y13488D01*
G01X9747Y13480D01*
G01X9864Y13457D01*
G01X9892Y13453D01*
G01X9907Y13453D01*
G01X9922Y13455D01*
G01X9938Y13457D01*
G01X10052Y13480D01*
G01X10065Y13484D01*
G01X10081Y13488D01*
G01X10096Y13494D01*
G01X10123Y13509D01*
G01X10222Y13576D01*
G01X10234Y13584D01*
G01X10246Y13594D01*
G01X10256Y13603D01*
G01X10265Y13615D01*
G01X10273Y13628D01*
G01X10339Y13726D01*
G01X10356Y13753D01*
G01X10361Y13767D01*
G01X10365Y13784D01*
G01X10369Y13798D01*
G01X10392Y13911D01*
G01X10393Y13919D01*
G01X10393Y13928D01*
G01X10396Y13936D01*
G01X10396Y14396D01*
G01X10403Y14403D01*
G01X10403Y13936D01*
G01X10406Y13928D01*
G01X10406Y13919D01*
G01X10407Y13911D01*
G01X10430Y13798D01*
G01X10434Y13784D01*
G01X10438Y13767D01*
G01X10443Y13753D01*
G01X10460Y13726D01*
G01X10526Y13628D01*
G01X10534Y13615D01*
G01X10543Y13605D01*
G01X10553Y13594D01*
G01X10565Y13586D01*
G01X10576Y13576D01*
G01X10585Y13569D01*
G01X10585Y11100D01*
G01X10589Y11051D01*
G01X10600Y11005D01*
G01X10618Y10959D01*
G01X10643Y10919D01*
G01X10673Y10882D01*
G01X11753Y9761D01*
G01X11792Y9728D01*
G01X11834Y9701D01*
G01X11881Y9682D01*
G01X11930Y9669D01*
G01X11981Y9665D01*
G01X17869Y9686D01*
G01X18685Y8869D01*
G01X18685Y7207D01*
G01X18673Y7213D01*
G01X18673Y6873D01*
G01X18685Y6873D01*
G01X18685Y6526D01*
G01X18673Y6526D01*
G01X18673Y6186D01*
G01X18685Y6192D01*
G01X18685Y6000D01*
G01X18689Y5950D01*
G01X18702Y5901D01*
G01X18719Y5857D01*
G01X18746Y5815D01*
G01X18777Y5778D01*
G01X18902Y5653D01*
G01X16246Y5653D01*
G01X15853Y6046D01*
G01X15853Y6153D01*
G01X15910Y6163D01*
G01X15965Y6192D01*
G01X16007Y6234D01*
G01X16035Y6290D01*
G01X16046Y6350D01*
G01X16046Y6403D01*
G01X16114Y6313D01*
G01X16227Y6228D01*
G01X16357Y6171D01*
G01X16500Y6153D01*
G01X16642Y6171D01*
G01X16773Y6228D01*
G01X16885Y6313D01*
G01X16972Y6428D01*
G01X17000Y6492D01*
G01X17027Y6428D01*
G01X17114Y6313D01*
G01X17227Y6228D01*
G01X17357Y6171D01*
G01X17500Y6153D01*
G01X17642Y6171D01*
G01X17773Y6228D01*
G01X17885Y6313D01*
G01X17972Y6428D01*
G01X18000Y6494D01*
G01X18027Y6428D01*
G01X18114Y6313D01*
G01X18227Y6228D01*
G01X18326Y6186D01*
G01X18326Y6526D01*
G01X18014Y6526D01*
G01X18027Y6557D01*
G01X18046Y6700D01*
G01X18027Y6842D01*
G01X18014Y6873D01*
G01X18326Y6873D01*
G01X18326Y7213D01*
G01X18227Y7171D01*
G01X18114Y7086D01*
G01X18027Y6973D01*
G01X18000Y6907D01*
G01X17972Y6973D01*
G01X17885Y7086D01*
G01X17772Y7171D01*
G01X17642Y7228D01*
G01X17500Y7246D01*
G01X17357Y7228D01*
G01X17227Y7171D01*
G01X17114Y7086D01*
G01X17027Y6973D01*
G01X17000Y6907D01*
G01X16972Y6973D01*
G01X16885Y7086D01*
G01X16772Y7171D01*
G01X16642Y7228D01*
G01X16500Y7246D01*
G01X16357Y7228D01*
G01X16227Y7171D01*
G01X16114Y7086D01*
G01X16046Y6998D01*
G01X16046Y7050D01*
G01X16035Y7109D01*
G01X16007Y7165D01*
G01X15965Y7207D01*
G01X15910Y7236D01*
G01X15850Y7246D01*
G01X15150Y7246D01*
G01X15089Y7236D01*
G01X15034Y7207D01*
G01X14992Y7165D01*
G01X14964Y7109D01*
G01X14953Y7050D01*
G01X14953Y6350D01*
G01X14964Y6290D01*
G01X14992Y6234D01*
G01X15034Y6192D01*
G01X15089Y6163D01*
G01X15146Y6153D01*
G01X15146Y5900D01*
G01X15150Y5844D01*
G01X15164Y5790D01*
G01X15184Y5740D01*
G01X15214Y5692D01*
G01X15250Y5650D01*
G01X15850Y5050D01*
G01X15892Y5013D01*
G01X15939Y4984D01*
G01X15989Y4963D01*
G01X16043Y4950D01*
G01X16100Y4946D01*
G01X22253Y4946D01*
G01X22938Y4261D01*
G01X22847Y4234D01*
G01X22723Y4153D01*
G01X22622Y4046D01*
G01X22600Y4007D01*
G01X22530Y4103D01*
G01X22415Y4198D01*
G01X22296Y4255D01*
G01X22296Y3896D01*
G01X22546Y3896D01*
G01X22514Y3773D01*
G01X22514Y3626D01*
G01X22546Y3503D01*
G01X22296Y3503D01*
G01X22296Y3144D01*
G01X22415Y3201D01*
G01X22530Y3296D01*
G01X22600Y3392D01*
G01X22622Y3353D01*
G01X22723Y3246D01*
G01X22847Y3165D01*
G01X22989Y3119D01*
G01X23138Y3111D01*
G37*

%LPD*%
G36*
G01X9352Y1092D02*
G01X9418Y1207D01*
G01X9468Y1363D01*
G01X9485Y1528D01*
G01X9469Y1673D01*
G01X9522Y1621D01*
G01X9569Y1582D01*
G01X9622Y1550D01*
G01X9677Y1528D01*
G01X9738Y1511D01*
G01X9800Y1507D01*
G01X9952Y1507D01*
G01X9535Y1092D01*
G01X9352Y1092D01*
G37*

%LPC*%

%LPD*%
G36*
G01X7950Y1305D02*
G01X7892Y1363D01*
G01X7892Y1800D01*
G01X7888Y1861D01*
G01X7872Y1921D01*
G01X7850Y1978D01*
G01X7827Y2013D01*
G01X7838Y2011D01*
G01X7900Y2007D01*
G01X8080Y2007D01*
G01X8064Y1990D01*
G01X7981Y1848D01*
G01X7931Y1692D01*
G01X7914Y1528D01*
G01X7931Y1363D01*
G01X7950Y1305D01*
G37*

%LPC*%

%LPD*%
G36*
G01X9964Y2292D02*
G01X9577Y2678D01*
G01X9530Y2717D01*
G01X9477Y2750D01*
G01X9422Y2771D01*
G01X9361Y2788D01*
G01X9300Y2792D01*
G01X9293Y2792D01*
G01X9335Y2838D01*
G01X9418Y2980D01*
G01X9468Y3136D01*
G01X9485Y3300D01*
G01X9468Y3463D01*
G01X9453Y3505D01*
G01X10668Y2292D01*
G01X9964Y2292D01*
G37*

%LPC*%

%LPD*%
G36*
G01X8064Y2792D02*
G01X7892Y2963D01*
G01X7892Y3813D01*
G01X7900Y3813D01*
G01X8027Y3859D01*
G01X8138Y3938D01*
G01X8223Y4042D01*
G01X8277Y4165D01*
G01X8296Y4300D01*
G01X8277Y4434D01*
G01X8227Y4548D01*
G01X8411Y4548D01*
G01X8903Y4055D01*
G01X8781Y4082D01*
G01X8618Y4082D01*
G01X8457Y4048D01*
G01X8306Y3980D01*
G01X8173Y3884D01*
G01X8064Y3761D01*
G01X7981Y3619D01*
G01X7931Y3463D01*
G01X7914Y3300D01*
G01X7931Y3136D01*
G01X7981Y2980D01*
G01X8064Y2838D01*
G01X8106Y2792D01*
G01X8064Y2792D01*
G37*

%LPC*%

%LPD*%
G36*
G01X23600Y4007D02*
G01X23530Y4103D01*
G01X23480Y4146D01*
G01X23715Y4146D01*
G01X23622Y4046D01*
G01X23600Y4007D01*
G37*

%LPC*%

%LPD*%
G36*
G01X19430Y6013D02*
G01X19314Y6130D01*
G01X19314Y6169D01*
G01X19469Y6013D01*
G01X19430Y6013D01*
G37*

%LPC*%

%LPD*%
G36*
G01X8250Y6251D02*
G01X8250Y6276D01*
G01X8260Y6269D01*
G01X8373Y6251D01*
G01X8250Y6251D01*
G37*

%LPC*%

%LPD*%
G36*
G01X20022Y6294D02*
G01X19935Y6380D01*
G01X19972Y6428D01*
G01X20000Y6492D01*
G01X20027Y6428D01*
G01X20114Y6313D01*
G01X20139Y6294D01*
G01X20022Y6294D01*
G37*

%LPC*%

%LPD*%
G36*
G01X20000Y6907D02*
G01X19972Y6973D01*
G01X19885Y7086D01*
G01X19772Y7171D01*
G01X19642Y7228D01*
G01X19500Y7246D01*
G01X19357Y7228D01*
G01X19314Y7209D01*
G01X19314Y9000D01*
G01X19310Y9050D01*
G01X19297Y9098D01*
G01X19280Y9142D01*
G01X19253Y9184D01*
G01X19222Y9221D01*
G01X18222Y10221D01*
G01X18184Y10253D01*
G01X18142Y10280D01*
G01X18096Y10298D01*
G01X18047Y10309D01*
G01X17997Y10313D01*
G01X12111Y10294D01*
G01X11214Y11226D01*
G01X11214Y13569D01*
G01X11222Y13576D01*
G01X11234Y13584D01*
G01X11246Y13594D01*
G01X11256Y13603D01*
G01X11265Y13615D01*
G01X11273Y13628D01*
G01X11339Y13726D01*
G01X11356Y13753D01*
G01X11361Y13767D01*
G01X11365Y13784D01*
G01X11369Y13798D01*
G01X11392Y13911D01*
G01X11393Y13919D01*
G01X11393Y13928D01*
G01X11396Y13936D01*
G01X11396Y14663D01*
G01X11393Y14671D01*
G01X11393Y14680D01*
G01X11392Y14688D01*
G01X11369Y14801D01*
G01X11365Y14815D01*
G01X11361Y14832D01*
G01X11356Y14846D01*
G01X11443Y14846D01*
G01X11438Y14832D01*
G01X11434Y14815D01*
G01X11430Y14801D01*
G01X11407Y14688D01*
G01X11406Y14680D01*
G01X11406Y14671D01*
G01X11403Y14663D01*
G01X11403Y13936D01*
G01X11406Y13928D01*
G01X11406Y13919D01*
G01X11407Y13911D01*
G01X11430Y13798D01*
G01X11434Y13784D01*
G01X11438Y13767D01*
G01X11443Y13753D01*
G01X11460Y13726D01*
G01X11526Y13628D01*
G01X11534Y13615D01*
G01X11543Y13605D01*
G01X11553Y13594D01*
G01X11565Y13586D01*
G01X11576Y13576D01*
G01X11672Y13509D01*
G01X11685Y13501D01*
G01X11702Y13494D01*
G01X11715Y13488D01*
G01X11747Y13480D01*
G01X11864Y13457D01*
G01X11892Y13453D01*
G01X11907Y13453D01*
G01X11922Y13455D01*
G01X11938Y13457D01*
G01X12052Y13480D01*
G01X12065Y13484D01*
G01X12081Y13488D01*
G01X12096Y13494D01*
G01X12123Y13509D01*
G01X12222Y13576D01*
G01X12234Y13584D01*
G01X12246Y13594D01*
G01X12256Y13603D01*
G01X12265Y13615D01*
G01X12273Y13628D01*
G01X12339Y13726D01*
G01X12356Y13753D01*
G01X12361Y13767D01*
G01X12365Y13784D01*
G01X12369Y13798D01*
G01X12392Y13911D01*
G01X12393Y13919D01*
G01X12393Y13928D01*
G01X12396Y13936D01*
G01X12396Y14663D01*
G01X12393Y14671D01*
G01X12393Y14680D01*
G01X12392Y14688D01*
G01X12369Y14801D01*
G01X12365Y14815D01*
G01X12361Y14832D01*
G01X12356Y14846D01*
G01X12443Y14846D01*
G01X12438Y14832D01*
G01X12434Y14815D01*
G01X12430Y14801D01*
G01X12407Y14688D01*
G01X12406Y14680D01*
G01X12406Y14671D01*
G01X12403Y14663D01*
G01X12403Y13936D01*
G01X12406Y13928D01*
G01X12406Y13919D01*
G01X12407Y13911D01*
G01X12430Y13798D01*
G01X12434Y13784D01*
G01X12438Y13767D01*
G01X12443Y13753D01*
G01X12460Y13726D01*
G01X12526Y13628D01*
G01X12534Y13615D01*
G01X12543Y13605D01*
G01X12553Y13594D01*
G01X12565Y13586D01*
G01X12576Y13576D01*
G01X12672Y13509D01*
G01X12685Y13501D01*
G01X12702Y13494D01*
G01X12715Y13488D01*
G01X12747Y13480D01*
G01X12864Y13457D01*
G01X12892Y13453D01*
G01X12907Y13453D01*
G01X12922Y13455D01*
G01X12938Y13457D01*
G01X13052Y13480D01*
G01X13065Y13484D01*
G01X13081Y13488D01*
G01X13096Y13494D01*
G01X13123Y13509D01*
G01X13222Y13576D01*
G01X13234Y13584D01*
G01X13246Y13594D01*
G01X13256Y13603D01*
G01X13265Y13615D01*
G01X13273Y13628D01*
G01X13339Y13726D01*
G01X13356Y13753D01*
G01X13361Y13767D01*
G01X13365Y13784D01*
G01X13369Y13798D01*
G01X13392Y13911D01*
G01X13393Y13919D01*
G01X13393Y13928D01*
G01X13396Y13936D01*
G01X13396Y14663D01*
G01X13393Y14671D01*
G01X13393Y14680D01*
G01X13392Y14688D01*
G01X13369Y14801D01*
G01X13365Y14815D01*
G01X13361Y14832D01*
G01X13356Y14846D01*
G01X13443Y14846D01*
G01X13438Y14832D01*
G01X13434Y14815D01*
G01X13430Y14801D01*
G01X13407Y14688D01*
G01X13406Y14680D01*
G01X13406Y14671D01*
G01X13403Y14663D01*
G01X13403Y13936D01*
G01X13406Y13928D01*
G01X13406Y13919D01*
G01X13407Y13911D01*
G01X13430Y13798D01*
G01X13434Y13784D01*
G01X13438Y13767D01*
G01X13443Y13753D01*
G01X13460Y13726D01*
G01X13526Y13628D01*
G01X13534Y13615D01*
G01X13543Y13605D01*
G01X13553Y13594D01*
G01X13565Y13586D01*
G01X13576Y13576D01*
G01X13672Y13509D01*
G01X13685Y13501D01*
G01X13702Y13494D01*
G01X13715Y13488D01*
G01X13747Y13480D01*
G01X13864Y13457D01*
G01X13892Y13453D01*
G01X13907Y13453D01*
G01X13922Y13455D01*
G01X13938Y13457D01*
G01X14052Y13480D01*
G01X14065Y13484D01*
G01X14081Y13488D01*
G01X14096Y13494D01*
G01X14123Y13509D01*
G01X14222Y13576D01*
G01X14234Y13584D01*
G01X14246Y13594D01*
G01X14256Y13603D01*
G01X14265Y13615D01*
G01X14273Y13628D01*
G01X14339Y13726D01*
G01X14356Y13753D01*
G01X14361Y13767D01*
G01X14365Y13784D01*
G01X14369Y13798D01*
G01X14392Y13911D01*
G01X14393Y13919D01*
G01X14393Y13928D01*
G01X14396Y13936D01*
G01X14396Y14663D01*
G01X14393Y14671D01*
G01X14393Y14680D01*
G01X14392Y14688D01*
G01X14369Y14801D01*
G01X14365Y14815D01*
G01X14361Y14832D01*
G01X14356Y14846D01*
G01X14443Y14846D01*
G01X14438Y14832D01*
G01X14434Y14815D01*
G01X14430Y14801D01*
G01X14407Y14688D01*
G01X14406Y14680D01*
G01X14406Y14671D01*
G01X14403Y14663D01*
G01X14403Y13936D01*
G01X14406Y13928D01*
G01X14406Y13919D01*
G01X14407Y13911D01*
G01X14430Y13798D01*
G01X14434Y13784D01*
G01X14438Y13767D01*
G01X14443Y13753D01*
G01X14460Y13726D01*
G01X14526Y13628D01*
G01X14534Y13615D01*
G01X14543Y13605D01*
G01X14553Y13594D01*
G01X14565Y13586D01*
G01X14576Y13576D01*
G01X14672Y13509D01*
G01X14685Y13501D01*
G01X14702Y13494D01*
G01X14715Y13488D01*
G01X14747Y13480D01*
G01X14864Y13457D01*
G01X14892Y13453D01*
G01X14907Y13453D01*
G01X14922Y13455D01*
G01X14938Y13457D01*
G01X15052Y13480D01*
G01X15065Y13484D01*
G01X15081Y13488D01*
G01X15096Y13494D01*
G01X15123Y13509D01*
G01X15222Y13576D01*
G01X15234Y13584D01*
G01X15246Y13594D01*
G01X15256Y13603D01*
G01X15265Y13615D01*
G01X15273Y13628D01*
G01X15339Y13726D01*
G01X15356Y13753D01*
G01X15361Y13767D01*
G01X15365Y13784D01*
G01X15369Y13798D01*
G01X15392Y13911D01*
G01X15393Y13919D01*
G01X15393Y13928D01*
G01X15396Y13936D01*
G01X15396Y14663D01*
G01X15393Y14671D01*
G01X15393Y14680D01*
G01X15392Y14688D01*
G01X15369Y14801D01*
G01X15365Y14815D01*
G01X15361Y14832D01*
G01X15356Y14846D01*
G01X15443Y14846D01*
G01X15438Y14832D01*
G01X15434Y14815D01*
G01X15430Y14801D01*
G01X15407Y14688D01*
G01X15406Y14680D01*
G01X15406Y14671D01*
G01X15403Y14663D01*
G01X15403Y13936D01*
G01X15406Y13928D01*
G01X15406Y13919D01*
G01X15407Y13911D01*
G01X15430Y13798D01*
G01X15434Y13784D01*
G01X15438Y13767D01*
G01X15443Y13753D01*
G01X15460Y13726D01*
G01X15526Y13628D01*
G01X15534Y13615D01*
G01X15543Y13605D01*
G01X15553Y13594D01*
G01X15565Y13586D01*
G01X15576Y13576D01*
G01X15672Y13509D01*
G01X15685Y13501D01*
G01X15702Y13494D01*
G01X15715Y13488D01*
G01X15727Y13484D01*
G01X15488Y13244D01*
G01X15357Y13228D01*
G01X15227Y13171D01*
G01X15114Y13086D01*
G01X15027Y12973D01*
G01X14972Y12842D01*
G01X14953Y12700D01*
G01X14964Y12619D01*
G01X14035Y11692D01*
G01X13338Y11692D01*
G01X13330Y11703D01*
G01X13215Y11798D01*
G01X13081Y11861D01*
G01X12938Y11888D01*
G01X12789Y11880D01*
G01X12647Y11834D01*
G01X12523Y11753D01*
G01X12422Y11646D01*
G01X12352Y11517D01*
G01X12314Y11373D01*
G01X12314Y11226D01*
G01X12352Y11082D01*
G01X12422Y10953D01*
G01X12523Y10846D01*
G01X12647Y10765D01*
G01X12789Y10719D01*
G01X12938Y10711D01*
G01X13081Y10738D01*
G01X13215Y10801D01*
G01X13330Y10896D01*
G01X13338Y10907D01*
G01X14200Y10907D01*
G01X14261Y10911D01*
G01X14322Y10928D01*
G01X14377Y10950D01*
G01X14430Y10982D01*
G01X14477Y11021D01*
G01X15626Y12169D01*
G01X15642Y12171D01*
G01X15773Y12228D01*
G01X15885Y12313D01*
G01X15972Y12428D01*
G01X16000Y12492D01*
G01X16027Y12428D01*
G01X16114Y12313D01*
G01X16227Y12228D01*
G01X16357Y12171D01*
G01X16500Y12153D01*
G01X16642Y12171D01*
G01X16773Y12228D01*
G01X16885Y12313D01*
G01X16972Y12428D01*
G01X17000Y12492D01*
G01X17027Y12428D01*
G01X17114Y12313D01*
G01X17227Y12228D01*
G01X17357Y12171D01*
G01X17500Y12153D01*
G01X17642Y12171D01*
G01X17773Y12228D01*
G01X17885Y12313D01*
G01X17972Y12428D01*
G01X18000Y12492D01*
G01X18027Y12428D01*
G01X18114Y12313D01*
G01X18227Y12228D01*
G01X18357Y12171D01*
G01X18500Y12153D01*
G01X18642Y12171D01*
G01X18706Y12200D01*
G01X18710Y12153D01*
G01X18719Y12109D01*
G01X18738Y12065D01*
G01X18761Y12028D01*
G01X18792Y11992D01*
G01X20706Y10078D01*
G01X20706Y7200D01*
G01X20642Y7228D01*
G01X20500Y7246D01*
G01X20357Y7228D01*
G01X20227Y7171D01*
G01X20114Y7086D01*
G01X20027Y6973D01*
G01X20000Y6907D01*
G37*

%LPC*%

%LPD*%
G36*
G01X17000Y12907D02*
G01X16972Y12973D01*
G01X16946Y13007D01*
G01X17053Y13007D01*
G01X17027Y12973D01*
G01X17000Y12907D01*
G37*

%LPC*%

%LPD*%
G36*
G01X18000Y12907D02*
G01X17972Y12973D01*
G01X17885Y13086D01*
G01X17803Y13148D01*
G01X18177Y13521D01*
G01X18218Y13569D01*
G01X18222Y13576D01*
G01X18234Y13584D01*
G01X18246Y13594D01*
G01X18256Y13603D01*
G01X18265Y13615D01*
G01X18273Y13628D01*
G01X18339Y13726D01*
G01X18356Y13753D01*
G01X18361Y13767D01*
G01X18365Y13784D01*
G01X18369Y13798D01*
G01X18392Y13911D01*
G01X18393Y13919D01*
G01X18393Y13928D01*
G01X18396Y13936D01*
G01X18396Y14663D01*
G01X18393Y14671D01*
G01X18393Y14680D01*
G01X18392Y14688D01*
G01X18369Y14801D01*
G01X18365Y14815D01*
G01X18361Y14832D01*
G01X18356Y14846D01*
G01X18443Y14846D01*
G01X18438Y14832D01*
G01X18434Y14815D01*
G01X18430Y14801D01*
G01X18407Y14688D01*
G01X18406Y14680D01*
G01X18406Y14671D01*
G01X18403Y14663D01*
G01X18403Y13936D01*
G01X18406Y13928D01*
G01X18406Y13919D01*
G01X18407Y13911D01*
G01X18430Y13798D01*
G01X18434Y13784D01*
G01X18438Y13767D01*
G01X18443Y13753D01*
G01X18460Y13726D01*
G01X18526Y13628D01*
G01X18534Y13615D01*
G01X18543Y13605D01*
G01X18553Y13594D01*
G01X18565Y13586D01*
G01X18576Y13576D01*
G01X18672Y13509D01*
G01X18685Y13501D01*
G01X18706Y13492D01*
G01X18706Y13200D01*
G01X18642Y13228D01*
G01X18500Y13246D01*
G01X18357Y13228D01*
G01X18227Y13171D01*
G01X18114Y13086D01*
G01X18027Y12973D01*
G01X18000Y12907D01*
G37*

%LPC*%

%LPD*%
G36*
G01X16368Y13792D02*
G01X16369Y13798D01*
G01X16392Y13911D01*
G01X16393Y13919D01*
G01X16393Y13928D01*
G01X16396Y13936D01*
G01X16396Y14663D01*
G01X16393Y14671D01*
G01X16393Y14680D01*
G01X16392Y14688D01*
G01X16369Y14801D01*
G01X16365Y14815D01*
G01X16361Y14832D01*
G01X16356Y14846D01*
G01X16443Y14846D01*
G01X16438Y14832D01*
G01X16434Y14815D01*
G01X16430Y14801D01*
G01X16407Y14688D01*
G01X16406Y14680D01*
G01X16406Y14671D01*
G01X16403Y14663D01*
G01X16403Y14623D01*
G01X16750Y14623D01*
G01X16750Y14846D01*
G01X17050Y14846D01*
G01X17050Y14623D01*
G01X17396Y14623D01*
G01X17396Y14663D01*
G01X17393Y14671D01*
G01X17393Y14680D01*
G01X17392Y14688D01*
G01X17369Y14801D01*
G01X17365Y14815D01*
G01X17361Y14832D01*
G01X17356Y14846D01*
G01X17443Y14846D01*
G01X17438Y14832D01*
G01X17434Y14815D01*
G01X17430Y14801D01*
G01X17407Y14688D01*
G01X17406Y14680D01*
G01X17406Y14671D01*
G01X17403Y14663D01*
G01X17403Y13936D01*
G01X17406Y13928D01*
G01X17406Y13919D01*
G01X17407Y13911D01*
G01X17415Y13871D01*
G01X17376Y13832D01*
G01X17392Y13911D01*
G01X17393Y13919D01*
G01X17393Y13928D01*
G01X17396Y13936D01*
G01X17396Y13976D01*
G01X17050Y13976D01*
G01X17050Y13792D01*
G01X16750Y13792D01*
G01X16750Y13976D01*
G01X16403Y13976D01*
G01X16403Y13936D01*
G01X16406Y13928D01*
G01X16406Y13919D01*
G01X16407Y13911D01*
G01X16430Y13798D01*
G01X16431Y13792D01*
G01X16368Y13792D01*
G37*

%LPC*%

%LPD*%
G54D11*
G01X2400Y6700D02*
G01X2400Y6300D01*
G01X2900Y5800D01*
G01X9619Y5800D01*
G01X11619Y3800D01*
G01X1400Y6700D02*
G01X1400Y5700D01*
G01X2100Y5000D01*
G01X8600Y5000D01*
G01X11100Y2500D01*
G01X16480Y2500D01*
G01X17780Y3800D01*
G01X8400Y6700D02*
G01X10300Y6700D01*
G01X13580Y3800D01*
G01X13580Y3800D01*
G01X13580Y3800D01*
G54D12*
G01X24100Y3700D02*
G01X24100Y4300D01*
G01X23900Y4500D01*
G01X23200Y4500D01*
G01X22400Y5300D01*
G01X16100Y5300D01*
G01X15500Y5900D01*
G01X15500Y6700D01*
G01X9900Y14300D02*
G01X9900Y14400D01*
G01X10700Y15200D01*
G01X30300Y15200D01*
G01X30600Y14900D01*
G01X30600Y7700D01*
G01X29600Y6700D01*
G54D13*
G01X10900Y14300D02*
G01X10900Y11100D01*
G01X11980Y9980D01*
G01X18000Y10000D01*
G01X19000Y9000D01*
G01X19000Y6000D01*
G01X19300Y5700D01*
G01X21100Y5700D01*
G01X21500Y6100D01*
G01X21500Y6700D01*
G54D14*
G01X19500Y6700D02*
G01X19500Y6400D01*
G01X19900Y6000D01*
G01X20800Y6000D01*
G01X21000Y6200D01*
G01X21000Y10200D01*
G01X19000Y12200D01*
G01X19000Y14200D01*
G01X18900Y14300D01*
G54D15*
G01X9900Y11300D02*
G01X7000Y11300D01*
G01X2400Y6700D01*
G01X28019Y3800D02*
G01X28019Y3319D01*
G01X26600Y1900D01*
G01X9800Y1900D01*
G01X9300Y2400D01*
G01X7900Y2400D01*
G01X7500Y2800D01*
G01X7500Y4000D01*
G01X7800Y4300D01*
G01X5100Y2400D02*
G01X6900Y2400D01*
G01X7500Y1800D01*
G01X7500Y1200D01*
G01X8000Y700D01*
G01X9700Y700D01*
G01X10300Y1300D01*
G01X29200Y1300D01*
G01X30000Y1900D01*
G01X29980Y3800D01*
G01X15500Y12700D02*
G01X15500Y12600D01*
G01X14200Y11300D01*
G01X12900Y11300D01*
G01X17900Y14300D02*
G01X17900Y13800D01*
G01X17500Y13400D01*
G01X16200Y13400D01*
G01X15500Y12700D01*
G54D17*
G01X15500Y6700D03*
G54D18*
G01X16500Y6700D03*
G01X17500Y6700D03*
G01X18500Y6700D03*
G01X19500Y6700D03*
G01X20500Y6700D03*
G01X21500Y6700D03*
G01X22500Y6700D03*
G01X23500Y6700D03*
G01X24500Y6700D03*
G01X25500Y6700D03*
G01X26500Y6700D03*
G01X27500Y6700D03*
G01X28500Y6700D03*
G01X29600Y6700D03*
G01X15500Y12700D03*
G01X16500Y12700D03*
G01X17500Y12700D03*
G01X18500Y12700D03*
G01X19500Y12700D03*
G01X20500Y12700D03*
G01X21500Y12700D03*
G01X22500Y12700D03*
G01X23500Y12700D03*
G01X24500Y12700D03*
G01X25500Y12700D03*
G01X26500Y12700D03*
G01X27500Y12700D03*
G01X28500Y12700D03*
G01X29500Y12700D03*
G54D20*
G01X11619Y3800D03*
G54D21*
G01X13580Y3800D03*
G54D20*
G01X3980Y3900D03*
G54D21*
G01X2019Y3900D03*
G54D20*
G01X29980Y3800D03*
G54D21*
G01X28019Y3800D03*
G54D23*
G01X21100Y3700D03*
G54D16*
G01X22100Y3700D03*
G01X23100Y3700D03*
G01X24100Y3700D03*
G54D20*
G01X15819Y3800D03*
G54D21*
G01X17780Y3800D03*
G54D25*
G01X3400Y12700D03*
G01X2400Y12700D03*
G01X1400Y12700D03*
G01X4400Y12700D03*
G01X5400Y12700D03*
G01X6400Y12700D03*
G01X7400Y12700D03*
G01X8400Y12700D03*
G01X8400Y6700D03*
G01X7400Y6700D03*
G01X6400Y6700D03*
G01X5400Y6700D03*
G01X4400Y6700D03*
G01X3400Y6700D03*
G01X2400Y6700D03*
G01X1400Y6700D03*
G01X9900Y14300D03*
G54D27*
G01X8700Y3300D03*
G01X6140Y3300D03*
G01X8700Y1528D03*
G01X6144Y1528D03*
G01X8700Y3300D03*
G01X6140Y3300D03*
G01X8700Y1528D03*
G01X6144Y1528D03*
G54D25*
G01X7800Y4300D03*
G01X5100Y2400D03*
G54D16*
G01X12900Y11300D03*
G01X9900Y11300D03*
G54D17*
G01X15500Y6700D03*
G54D18*
G01X16500Y6700D03*
G01X17500Y6700D03*
G01X18500Y6700D03*
G01X19500Y6700D03*
G01X20500Y6700D03*
G01X21500Y6700D03*
G01X22500Y6700D03*
G01X23500Y6700D03*
G01X24500Y6700D03*
G01X25500Y6700D03*
G01X26500Y6700D03*
G01X27500Y6700D03*
G01X28500Y6700D03*
G01X29600Y6700D03*
G01X15500Y12700D03*
G01X16500Y12700D03*
G01X17500Y12700D03*
G01X18500Y12700D03*
G01X19500Y12700D03*
G01X20500Y12700D03*
G01X21500Y12700D03*
G01X22500Y12700D03*
G01X23500Y12700D03*
G01X24500Y12700D03*
G01X25500Y12700D03*
G01X26500Y12700D03*
G01X27500Y12700D03*
G01X28500Y12700D03*
G01X29500Y12700D03*
G54D20*
G01X11619Y3800D03*
G54D21*
G01X13580Y3800D03*
G54D20*
G01X3980Y3900D03*
G54D21*
G01X2019Y3900D03*
G54D20*
G01X29980Y3800D03*
G54D21*
G01X28019Y3800D03*
G54D23*
G01X21100Y3700D03*
G54D16*
G01X22100Y3700D03*
G01X23100Y3700D03*
G01X24100Y3700D03*
G54D20*
G01X15819Y3800D03*
G54D21*
G01X17780Y3800D03*
G54D25*
G01X3400Y12700D03*
G01X2400Y12700D03*
G01X1400Y12700D03*
G01X4400Y12700D03*
G01X5400Y12700D03*
G01X6400Y12700D03*
G01X7400Y12700D03*
G01X8400Y12700D03*
G01X8400Y6700D03*
G01X7400Y6700D03*
G01X6400Y6700D03*
G01X5400Y6700D03*
G01X4400Y6700D03*
G01X3400Y6700D03*
G01X2400Y6700D03*
G01X1400Y6700D03*
G01X9900Y14300D03*
G54D27*
G01X8700Y3300D03*
G01X6140Y3300D03*
G01X8700Y1528D03*
G01X6144Y1528D03*
G01X8700Y3300D03*
G01X6140Y3300D03*
G01X8700Y1528D03*
G01X6144Y1528D03*
G54D25*
G01X7800Y4300D03*
G01X5100Y2400D03*
G01X9900Y14650D02*
G01X9900Y13950D01*
G01X10900Y14650D02*
G01X10900Y13950D01*
G01X11900Y14650D02*
G01X11900Y13950D01*
G01X12900Y14650D02*
G01X12900Y13950D01*
G01X13900Y14650D02*
G01X13900Y13950D01*
G01X14900Y14650D02*
G01X14900Y13950D01*
G01X15900Y14650D02*
G01X15900Y13950D01*
G01X16900Y14650D02*
G01X16900Y13950D01*
G01X17900Y14650D02*
G01X17900Y13950D01*
G01X18900Y14650D02*
G01X18900Y13950D01*
G01X19900Y14650D02*
G01X19900Y13950D01*

M00*
M02*