G04 ---------------------------- Layer name :TOP LAYER*
G04 easyEDA 0.1*
G04 Scale: 100 percent, Rotated: No, Reflected: No *
G04 Dimensions in inches *
G04 leading zeros omitted , absolute positions ,2 integer and 4 * 
%FSLAX24Y24*%
%MOIN*%
G90*
G70D02*

%ADD11C,0.039370*%
%ADD12C,0.078740*%
%ADD13C,0.051181*%
%ADD14C,0.031496*%
%ADD15C,0.019685*%
%ADD16C,0.023620*%
%ADD17R,0.070000X0.070000*%
%ADD18C,0.070000*%
%ADD20R,0.080000X0.080000*%
%ADD21C,0.080000*%
%ADD23R,0.078740X0.078740*%
%ADD25C,0.060000*%
%ADD27C,0.118110*%

%LPD*%
G36*
G01X0Y0D02*
G01X0Y15700D01*
G01X31496Y15700D01*
G01X31496Y0D01*
G01X0Y0D01*
G37*

%LPC*%
G36*
G01X1700Y411D02*
G01X1853Y430D01*
G01X1997Y480D01*
G01X2127Y561D01*
G01X2238Y671D01*
G01X2319Y801D01*
G01X2369Y946D01*
G01X2388Y1100D01*
G01X2369Y1253D01*
G01X2319Y1398D01*
G01X2238Y1528D01*
G01X2127Y1638D01*
G01X1997Y1719D01*
G01X1853Y1769D01*
G01X1700Y1788D01*
G01X1546Y1769D01*
G01X1402Y1719D01*
G01X1272Y1638D01*
G01X1161Y1528D01*
G01X1080Y1398D01*
G01X1030Y1253D01*
G01X1011Y1100D01*
G01X1030Y946D01*
G01X1080Y801D01*
G01X1161Y671D01*
G01X1272Y561D01*
G01X1402Y480D01*
G01X1546Y430D01*
G01X1700Y411D01*
G37*
G36*
G01X8200Y14011D02*
G01X8353Y14030D01*
G01X8497Y14080D01*
G01X8627Y14161D01*
G01X8738Y14271D01*
G01X8819Y14401D01*
G01X8869Y14546D01*
G01X8888Y14700D01*
G01X8869Y14853D01*
G01X8819Y14998D01*
G01X8738Y15128D01*
G01X8627Y15238D01*
G01X8497Y15319D01*
G01X8353Y15369D01*
G01X8200Y15388D01*
G01X8046Y15369D01*
G01X7902Y15319D01*
G01X7772Y15238D01*
G01X7661Y15128D01*
G01X7580Y14998D01*
G01X7530Y14853D01*
G01X7511Y14700D01*
G01X7530Y14546D01*
G01X7580Y14401D01*
G01X7661Y14271D01*
G01X7772Y14161D01*
G01X7902Y14080D01*
G01X8046Y14030D01*
G01X8200Y14011D01*
G37*
G36*
G01X28400Y13611D02*
G01X28553Y13630D01*
G01X28697Y13680D01*
G01X28827Y13761D01*
G01X28938Y13871D01*
G01X29019Y14001D01*
G01X29069Y14146D01*
G01X29088Y14300D01*
G01X29069Y14453D01*
G01X29019Y14598D01*
G01X28938Y14728D01*
G01X28827Y14838D01*
G01X28697Y14919D01*
G01X28553Y14969D01*
G01X28400Y14988D01*
G01X28246Y14969D01*
G01X28102Y14919D01*
G01X27972Y14838D01*
G01X27861Y14728D01*
G01X27780Y14598D01*
G01X27730Y14453D01*
G01X27711Y14300D01*
G01X27730Y14146D01*
G01X27780Y14001D01*
G01X27861Y13871D01*
G01X27972Y13761D01*
G01X28102Y13680D01*
G01X28246Y13630D01*
G01X28400Y13611D01*
G37*
G36*
G01X5065Y1905D02*
G01X5200Y1913D01*
G01X5327Y1959D01*
G01X5438Y2038D01*
G01X5523Y2142D01*
G01X5577Y2265D01*
G01X5596Y2400D01*
G01X5577Y2534D01*
G01X5523Y2657D01*
G01X5484Y2707D01*
G01X5477Y2884D01*
G01X5503Y2838D01*
G01X5614Y2715D01*
G01X5746Y2619D01*
G01X5897Y2551D01*
G01X6057Y2517D01*
G01X6222Y2517D01*
G01X6381Y2551D01*
G01X6534Y2619D01*
G01X6665Y2715D01*
G01X6776Y2838D01*
G01X6857Y2980D01*
G01X6907Y3136D01*
G01X6926Y3300D01*
G01X6907Y3463D01*
G01X6857Y3619D01*
G01X6776Y3761D01*
G01X6665Y3884D01*
G01X6534Y3980D01*
G01X6381Y4048D01*
G01X6222Y4082D01*
G01X6135Y4082D01*
G01X6676Y4621D01*
G01X6715Y4669D01*
G01X6750Y4721D01*
G01X6772Y4778D01*
G01X6788Y4838D01*
G01X6792Y4900D01*
G01X6792Y6403D01*
G01X6823Y6442D01*
G01X6877Y6565D01*
G01X6896Y6700D01*
G01X6877Y6834D01*
G01X6823Y6957D01*
G01X6738Y7061D01*
G01X6627Y7140D01*
G01X6500Y7186D01*
G01X6365Y7194D01*
G01X6234Y7167D01*
G01X6114Y7105D01*
G01X6015Y7013D01*
G01X5946Y6898D01*
G01X5907Y6767D01*
G01X5907Y6632D01*
G01X5946Y6501D01*
G01X6007Y6400D01*
G01X6007Y5061D01*
G01X4789Y3846D01*
G01X4747Y3796D01*
G01X4714Y3742D01*
G01X4692Y3682D01*
G01X4677Y3619D01*
G01X4673Y3555D01*
G01X4700Y2686D01*
G01X4646Y2598D01*
G01X4607Y2467D01*
G01X4607Y2332D01*
G01X4646Y2201D01*
G01X4715Y2086D01*
G01X4814Y1994D01*
G01X4934Y1932D01*
G01X5065Y1905D01*
G37*
G36*
G01X9892Y13453D02*
G01X9907Y13453D01*
G01X9922Y13455D01*
G01X9938Y13457D01*
G01X10052Y13480D01*
G01X10065Y13484D01*
G01X10081Y13488D01*
G01X10096Y13494D01*
G01X10123Y13509D01*
G01X10222Y13576D01*
G01X10234Y13584D01*
G01X10246Y13594D01*
G01X10256Y13603D01*
G01X10265Y13615D01*
G01X10273Y13628D01*
G01X10339Y13726D01*
G01X10356Y13753D01*
G01X10361Y13767D01*
G01X10365Y13784D01*
G01X10369Y13798D01*
G01X10392Y13911D01*
G01X10393Y13919D01*
G01X10393Y13928D01*
G01X10396Y13936D01*
G01X10396Y14663D01*
G01X10393Y14671D01*
G01X10393Y14680D01*
G01X10392Y14688D01*
G01X10369Y14801D01*
G01X10365Y14815D01*
G01X10361Y14832D01*
G01X10356Y14846D01*
G01X10339Y14873D01*
G01X10273Y14971D01*
G01X10265Y14984D01*
G01X10256Y14996D01*
G01X10246Y15005D01*
G01X10234Y15015D01*
G01X10222Y15023D01*
G01X10123Y15090D01*
G01X10096Y15105D01*
G01X10081Y15111D01*
G01X10065Y15115D01*
G01X10052Y15119D01*
G01X9938Y15142D01*
G01X9922Y15144D01*
G01X9907Y15146D01*
G01X9892Y15146D01*
G01X9864Y15142D01*
G01X9747Y15119D01*
G01X9715Y15111D01*
G01X9702Y15105D01*
G01X9685Y15098D01*
G01X9672Y15090D01*
G01X9576Y15023D01*
G01X9565Y15013D01*
G01X9553Y15005D01*
G01X9543Y14994D01*
G01X9534Y14984D01*
G01X9526Y14971D01*
G01X9460Y14873D01*
G01X9443Y14846D01*
G01X9438Y14832D01*
G01X9434Y14815D01*
G01X9430Y14801D01*
G01X9407Y14688D01*
G01X9406Y14680D01*
G01X9406Y14671D01*
G01X9403Y14663D01*
G01X9403Y13936D01*
G01X9406Y13928D01*
G01X9406Y13919D01*
G01X9407Y13911D01*
G01X9430Y13798D01*
G01X9434Y13784D01*
G01X9438Y13767D01*
G01X9443Y13753D01*
G01X9460Y13726D01*
G01X9526Y13628D01*
G01X9534Y13615D01*
G01X9543Y13605D01*
G01X9553Y13594D01*
G01X9565Y13586D01*
G01X9576Y13576D01*
G01X9672Y13509D01*
G01X9685Y13501D01*
G01X9702Y13494D01*
G01X9715Y13488D01*
G01X9747Y13480D01*
G01X9864Y13457D01*
G01X9892Y13453D01*
G37*
G36*
G01X10892Y13453D02*
G01X10907Y13453D01*
G01X10922Y13455D01*
G01X10938Y13457D01*
G01X11052Y13480D01*
G01X11065Y13484D01*
G01X11081Y13488D01*
G01X11096Y13494D01*
G01X11123Y13509D01*
G01X11222Y13576D01*
G01X11234Y13584D01*
G01X11246Y13594D01*
G01X11256Y13603D01*
G01X11265Y13615D01*
G01X11273Y13628D01*
G01X11339Y13726D01*
G01X11356Y13753D01*
G01X11361Y13767D01*
G01X11365Y13784D01*
G01X11369Y13798D01*
G01X11392Y13911D01*
G01X11393Y13919D01*
G01X11393Y13928D01*
G01X11396Y13936D01*
G01X11396Y14663D01*
G01X11393Y14671D01*
G01X11393Y14680D01*
G01X11392Y14688D01*
G01X11369Y14801D01*
G01X11365Y14815D01*
G01X11361Y14832D01*
G01X11356Y14846D01*
G01X11339Y14873D01*
G01X11273Y14971D01*
G01X11265Y14984D01*
G01X11256Y14996D01*
G01X11246Y15005D01*
G01X11234Y15015D01*
G01X11222Y15023D01*
G01X11123Y15090D01*
G01X11096Y15105D01*
G01X11081Y15111D01*
G01X11065Y15115D01*
G01X11052Y15119D01*
G01X10938Y15142D01*
G01X10922Y15144D01*
G01X10907Y15146D01*
G01X10892Y15146D01*
G01X10864Y15142D01*
G01X10747Y15119D01*
G01X10715Y15111D01*
G01X10702Y15105D01*
G01X10685Y15098D01*
G01X10672Y15090D01*
G01X10576Y15023D01*
G01X10565Y15013D01*
G01X10553Y15005D01*
G01X10543Y14994D01*
G01X10534Y14984D01*
G01X10526Y14971D01*
G01X10460Y14873D01*
G01X10443Y14846D01*
G01X10438Y14832D01*
G01X10434Y14815D01*
G01X10430Y14801D01*
G01X10407Y14688D01*
G01X10406Y14680D01*
G01X10406Y14671D01*
G01X10403Y14663D01*
G01X10403Y13936D01*
G01X10406Y13928D01*
G01X10406Y13919D01*
G01X10407Y13911D01*
G01X10430Y13798D01*
G01X10434Y13784D01*
G01X10438Y13767D01*
G01X10443Y13753D01*
G01X10460Y13726D01*
G01X10526Y13628D01*
G01X10534Y13615D01*
G01X10543Y13605D01*
G01X10553Y13594D01*
G01X10565Y13586D01*
G01X10576Y13576D01*
G01X10672Y13509D01*
G01X10685Y13501D01*
G01X10702Y13494D01*
G01X10715Y13488D01*
G01X10747Y13480D01*
G01X10864Y13457D01*
G01X10892Y13453D01*
G37*
G36*
G01X7931Y12850D02*
G01X8250Y12850D01*
G01X8250Y13171D01*
G01X8234Y13167D01*
G01X8114Y13105D01*
G01X8015Y13013D01*
G01X7946Y12898D01*
G01X7931Y12850D01*
G37*
G36*
G01X8550Y12850D02*
G01X8872Y12850D01*
G01X8823Y12957D01*
G01X8738Y13061D01*
G01X8627Y13140D01*
G01X8550Y13167D01*
G01X8550Y12850D01*
G37*
G36*
G01X8550Y12232D02*
G01X8627Y12259D01*
G01X8738Y12338D01*
G01X8823Y12442D01*
G01X8872Y12550D01*
G01X8550Y12550D01*
G01X8550Y12232D01*
G37*
G36*
G01X8250Y12228D02*
G01X8250Y12550D01*
G01X7931Y12550D01*
G01X7946Y12501D01*
G01X8015Y12386D01*
G01X8114Y12294D01*
G01X8234Y12232D01*
G01X8250Y12228D01*
G37*
G36*
G01X30500Y211D02*
G01X30653Y230D01*
G01X30797Y280D01*
G01X30927Y361D01*
G01X31038Y471D01*
G01X31119Y601D01*
G01X31169Y746D01*
G01X31188Y900D01*
G01X31169Y1053D01*
G01X31119Y1198D01*
G01X31038Y1328D01*
G01X30927Y1438D01*
G01X30797Y1519D01*
G01X30653Y1569D01*
G01X30500Y1588D01*
G01X30346Y1569D01*
G01X30202Y1519D01*
G01X30072Y1438D01*
G01X29961Y1328D01*
G01X29880Y1198D01*
G01X29830Y1053D01*
G01X29811Y900D01*
G01X29830Y746D01*
G01X29880Y601D01*
G01X29961Y471D01*
G01X30072Y361D01*
G01X30202Y280D01*
G01X30346Y230D01*
G01X30500Y211D01*
G37*
G36*
G01X1947Y3307D02*
G01X2092Y3307D01*
G01X2231Y3342D01*
G01X2357Y3409D01*
G01X2465Y3503D01*
G01X2547Y3623D01*
G01X2597Y3757D01*
G01X2610Y3850D01*
G01X4719Y5959D01*
G01X4765Y6013D01*
G01X4802Y6073D01*
G01X4830Y6140D01*
G01X4846Y6209D01*
G01X4852Y6280D01*
G01X4852Y6505D01*
G01X4877Y6565D01*
G01X4896Y6700D01*
G01X4877Y6834D01*
G01X4823Y6957D01*
G01X4738Y7061D01*
G01X4627Y7140D01*
G01X4500Y7186D01*
G01X4365Y7194D01*
G01X4234Y7167D01*
G01X4114Y7105D01*
G01X4015Y7013D01*
G01X3946Y6898D01*
G01X3907Y6767D01*
G01X3907Y6632D01*
G01X3946Y6501D01*
G01X3947Y6498D01*
G01X3947Y6467D01*
G01X1972Y4492D01*
G01X1947Y4492D01*
G01X1807Y4457D01*
G01X1681Y4390D01*
G01X1573Y4296D01*
G01X1492Y4176D01*
G01X1442Y4042D01*
G01X1423Y3900D01*
G01X1442Y3757D01*
G01X1492Y3623D01*
G01X1573Y3503D01*
G01X1681Y3409D01*
G01X1807Y3342D01*
G01X1947Y3307D01*
G37*
G36*
G01X6061Y746D02*
G01X6226Y746D01*
G01X6385Y780D01*
G01X6538Y848D01*
G01X6669Y944D01*
G01X6780Y1065D01*
G01X6861Y1207D01*
G01X6864Y1213D01*
G01X6888Y1219D01*
G01X6931Y1238D01*
G01X6972Y1261D01*
G01X7007Y1292D01*
G01X7722Y2005D01*
G01X8077Y2005D01*
G01X8064Y1990D01*
G01X7981Y1848D01*
G01X7931Y1692D01*
G01X7914Y1528D01*
G01X7931Y1363D01*
G01X7981Y1207D01*
G01X8064Y1065D01*
G01X8173Y944D01*
G01X8306Y848D01*
G01X8457Y780D01*
G01X8618Y746D01*
G01X8781Y746D01*
G01X8942Y780D01*
G01X9093Y848D01*
G01X9226Y944D01*
G01X9335Y1065D01*
G01X9418Y1207D01*
G01X9468Y1363D01*
G01X9485Y1528D01*
G01X9468Y1692D01*
G01X9418Y1848D01*
G01X9335Y1990D01*
G01X9226Y2109D01*
G01X10307Y3192D01*
G01X10338Y3228D01*
G01X10361Y3265D01*
G01X10380Y3309D01*
G01X10389Y3353D01*
G01X10393Y3400D01*
G01X10393Y5378D01*
G01X11322Y6305D01*
G01X13000Y6305D01*
G01X13111Y6328D01*
G01X13207Y6392D01*
G01X13722Y6905D01*
G01X14953Y6905D01*
G01X14953Y6350D01*
G01X14964Y6290D01*
G01X14992Y6234D01*
G01X15034Y6192D01*
G01X15089Y6163D01*
G01X15150Y6153D01*
G01X15850Y6153D01*
G01X15910Y6163D01*
G01X15965Y6192D01*
G01X16007Y6234D01*
G01X16035Y6290D01*
G01X16046Y6350D01*
G01X16046Y6403D01*
G01X16114Y6313D01*
G01X16227Y6228D01*
G01X16357Y6171D01*
G01X16500Y6153D01*
G01X16539Y6159D01*
G01X17747Y4951D01*
G01X16519Y4951D01*
G01X16450Y4946D01*
G01X16380Y4930D01*
G01X16314Y4901D01*
G01X16253Y4865D01*
G01X16200Y4819D01*
G01X15769Y4390D01*
G01X15619Y4390D01*
G01X15619Y4396D01*
G01X15419Y4396D01*
G01X15384Y4390D01*
G01X13580Y4390D01*
G01X13427Y4369D01*
G01X13380Y4350D01*
G01X13380Y4359D01*
G01X13368Y4357D01*
G01X13242Y4290D01*
G01X13134Y4196D01*
G01X13052Y4076D01*
G01X13023Y4000D01*
G01X13030Y4000D01*
G01X13010Y3951D01*
G01X12989Y3800D01*
G01X13010Y3648D01*
G01X13030Y3600D01*
G01X13023Y3600D01*
G01X13052Y3523D01*
G01X13134Y3403D01*
G01X13242Y3309D01*
G01X13368Y3242D01*
G01X13380Y3240D01*
G01X13380Y3250D01*
G01X13427Y3230D01*
G01X13580Y3209D01*
G01X15384Y3209D01*
G01X15419Y3203D01*
G01X15619Y3203D01*
G01X15619Y3209D01*
G01X15819Y3209D01*
G01X15972Y3230D01*
G01X16019Y3250D01*
G01X16019Y3203D01*
G01X16219Y3203D01*
G01X16280Y3213D01*
G01X16335Y3242D01*
G01X16377Y3284D01*
G01X16406Y3340D01*
G01X16415Y3400D01*
G01X16415Y3600D01*
G01X16369Y3600D01*
G01X16389Y3648D01*
G01X16402Y3742D01*
G01X16707Y4048D01*
G01X17242Y4048D01*
G01X17202Y3942D01*
G01X17184Y3800D01*
G01X17202Y3657D01*
G01X17252Y3523D01*
G01X17334Y3403D01*
G01X17442Y3309D01*
G01X17568Y3242D01*
G01X17707Y3207D01*
G01X17852Y3207D01*
G01X17992Y3242D01*
G01X18118Y3309D01*
G01X18226Y3403D01*
G01X18307Y3523D01*
G01X18357Y3657D01*
G01X18376Y3800D01*
G01X18357Y3942D01*
G01X18318Y4048D01*
G01X20510Y4048D01*
G01X20510Y3307D01*
G01X20519Y3248D01*
G01X20547Y3192D01*
G01X20589Y3150D01*
G01X20646Y3121D01*
G01X20647Y3121D01*
G01X20647Y2988D01*
G01X20411Y2751D01*
G01X13307Y2751D01*
G01X12215Y3844D01*
G01X12215Y4200D01*
G01X12206Y4259D01*
G01X12177Y4315D01*
G01X12135Y4357D01*
G01X12080Y4386D01*
G01X12019Y4396D01*
G01X11219Y4396D01*
G01X11160Y4386D01*
G01X11103Y4357D01*
G01X11061Y4315D01*
G01X11034Y4259D01*
G01X11023Y4200D01*
G01X11023Y3400D01*
G01X11034Y3340D01*
G01X11061Y3284D01*
G01X11103Y3242D01*
G01X11160Y3213D01*
G01X11219Y3203D01*
G01X11576Y3203D01*
G01X12800Y1980D01*
G01X12853Y1934D01*
G01X12914Y1898D01*
G01X12980Y1869D01*
G01X13050Y1853D01*
G01X13119Y1848D01*
G01X20600Y1848D01*
G01X20669Y1853D01*
G01X20739Y1869D01*
G01X20806Y1898D01*
G01X20865Y1934D01*
G01X20919Y1980D01*
G01X21419Y2480D01*
G01X21465Y2534D01*
G01X21502Y2594D01*
G01X21530Y2659D01*
G01X21546Y2730D01*
G01X21552Y2800D01*
G01X21552Y3121D01*
G01X21607Y3150D01*
G01X21650Y3192D01*
G01X21677Y3248D01*
G01X21684Y3288D01*
G01X21723Y3246D01*
G01X21847Y3165D01*
G01X21903Y3148D01*
G01X21903Y3298D01*
G01X21960Y3269D01*
G01X22100Y3248D01*
G01X22239Y3269D01*
G01X22296Y3298D01*
G01X22296Y3144D01*
G01X22415Y3201D01*
G01X22530Y3296D01*
G01X22600Y3392D01*
G01X22622Y3353D01*
G01X22723Y3246D01*
G01X22847Y3165D01*
G01X22989Y3119D01*
G01X23138Y3111D01*
G01X23281Y3138D01*
G01X23415Y3201D01*
G01X23530Y3296D01*
G01X23600Y3392D01*
G01X23622Y3353D01*
G01X23723Y3246D01*
G01X23847Y3165D01*
G01X23989Y3119D01*
G01X24138Y3111D01*
G01X24281Y3138D01*
G01X24415Y3201D01*
G01X24530Y3296D01*
G01X24618Y3415D01*
G01X24672Y3553D01*
G01X24689Y3700D01*
G01X24672Y3846D01*
G01X24618Y3984D01*
G01X24530Y4103D01*
G01X24415Y4198D01*
G01X24281Y4261D01*
G01X24138Y4288D01*
G01X23989Y4280D01*
G01X23847Y4234D01*
G01X23723Y4153D01*
G01X23622Y4046D01*
G01X23600Y4007D01*
G01X23530Y4103D01*
G01X23453Y4165D01*
G01X23453Y4400D01*
G01X23450Y4455D01*
G01X23435Y4509D01*
G01X23415Y4559D01*
G01X23385Y4607D01*
G01X23350Y4650D01*
G01X22650Y5350D01*
G01X22607Y5386D01*
G01X22560Y5415D01*
G01X22510Y5436D01*
G01X22456Y5450D01*
G01X22400Y5453D01*
G01X18246Y5453D01*
G01X17539Y6159D01*
G01X17642Y6171D01*
G01X17773Y6228D01*
G01X17885Y6313D01*
G01X17972Y6428D01*
G01X18000Y6494D01*
G01X18027Y6428D01*
G01X18114Y6313D01*
G01X18227Y6228D01*
G01X18326Y6186D01*
G01X18326Y6526D01*
G01X18014Y6526D01*
G01X18027Y6557D01*
G01X18046Y6700D01*
G01X18027Y6842D01*
G01X18014Y6873D01*
G01X18326Y6873D01*
G01X18326Y6905D01*
G01X18673Y6905D01*
G01X18673Y6873D01*
G01X18985Y6873D01*
G01X18972Y6842D01*
G01X18953Y6700D01*
G01X18972Y6557D01*
G01X18985Y6526D01*
G01X18673Y6526D01*
G01X18673Y6186D01*
G01X18773Y6228D01*
G01X18885Y6313D01*
G01X18972Y6428D01*
G01X19000Y6494D01*
G01X19027Y6428D01*
G01X19114Y6313D01*
G01X19227Y6228D01*
G01X19357Y6171D01*
G01X19500Y6153D01*
G01X19642Y6171D01*
G01X19773Y6228D01*
G01X19885Y6313D01*
G01X19972Y6428D01*
G01X20000Y6492D01*
G01X20027Y6428D01*
G01X20114Y6313D01*
G01X20227Y6228D01*
G01X20357Y6171D01*
G01X20500Y6153D01*
G01X20642Y6171D01*
G01X20773Y6228D01*
G01X20885Y6313D01*
G01X20972Y6428D01*
G01X21000Y6492D01*
G01X21027Y6428D01*
G01X21114Y6313D01*
G01X21227Y6228D01*
G01X21357Y6171D01*
G01X21500Y6153D01*
G01X21642Y6171D01*
G01X21773Y6228D01*
G01X21885Y6313D01*
G01X21972Y6428D01*
G01X22000Y6492D01*
G01X22027Y6428D01*
G01X22114Y6313D01*
G01X22227Y6228D01*
G01X22357Y6171D01*
G01X22500Y6153D01*
G01X22642Y6171D01*
G01X22773Y6228D01*
G01X22885Y6313D01*
G01X22972Y6428D01*
G01X23000Y6492D01*
G01X23027Y6428D01*
G01X23114Y6313D01*
G01X23227Y6228D01*
G01X23357Y6171D01*
G01X23500Y6153D01*
G01X23642Y6171D01*
G01X23773Y6228D01*
G01X23885Y6313D01*
G01X23972Y6428D01*
G01X24000Y6492D01*
G01X24027Y6428D01*
G01X24114Y6313D01*
G01X24227Y6228D01*
G01X24357Y6171D01*
G01X24500Y6153D01*
G01X24642Y6171D01*
G01X24773Y6228D01*
G01X24885Y6313D01*
G01X24972Y6428D01*
G01X25000Y6492D01*
G01X25027Y6428D01*
G01X25114Y6313D01*
G01X25227Y6228D01*
G01X25357Y6171D01*
G01X25500Y6153D01*
G01X25642Y6171D01*
G01X25773Y6228D01*
G01X25885Y6313D01*
G01X25972Y6428D01*
G01X26000Y6492D01*
G01X26027Y6428D01*
G01X26114Y6313D01*
G01X26227Y6228D01*
G01X26357Y6171D01*
G01X26500Y6153D01*
G01X26642Y6171D01*
G01X26773Y6228D01*
G01X26885Y6313D01*
G01X26972Y6428D01*
G01X27000Y6492D01*
G01X27027Y6428D01*
G01X27114Y6313D01*
G01X27227Y6228D01*
G01X27357Y6171D01*
G01X27500Y6153D01*
G01X27642Y6171D01*
G01X27773Y6228D01*
G01X27885Y6313D01*
G01X27972Y6428D01*
G01X28000Y6492D01*
G01X28027Y6428D01*
G01X28114Y6313D01*
G01X28227Y6228D01*
G01X28357Y6171D01*
G01X28500Y6153D01*
G01X28642Y6171D01*
G01X28773Y6228D01*
G01X28885Y6313D01*
G01X28972Y6428D01*
G01X29027Y6557D01*
G01X29046Y6700D01*
G01X29027Y6842D01*
G01X28972Y6973D01*
G01X28885Y7086D01*
G01X28793Y7155D01*
G01X28793Y9000D01*
G01X28789Y9046D01*
G01X28780Y9090D01*
G01X28761Y9134D01*
G01X28738Y9171D01*
G01X28707Y9207D01*
G01X27807Y10107D01*
G01X27773Y10138D01*
G01X27734Y10161D01*
G01X27692Y10180D01*
G01X27647Y10190D01*
G01X27602Y10194D01*
G01X24347Y10209D01*
G01X24389Y10219D01*
G01X24434Y10238D01*
G01X24472Y10261D01*
G01X24507Y10292D01*
G01X26384Y12167D01*
G01X26500Y12153D01*
G01X26642Y12171D01*
G01X26773Y12228D01*
G01X26885Y12313D01*
G01X26972Y12428D01*
G01X27000Y12492D01*
G01X27027Y12428D01*
G01X27114Y12313D01*
G01X27227Y12228D01*
G01X27357Y12171D01*
G01X27500Y12153D01*
G01X27642Y12171D01*
G01X27773Y12228D01*
G01X27885Y12313D01*
G01X27972Y12428D01*
G01X28000Y12492D01*
G01X28027Y12428D01*
G01X28114Y12313D01*
G01X28227Y12228D01*
G01X28357Y12171D01*
G01X28500Y12153D01*
G01X28642Y12171D01*
G01X28773Y12228D01*
G01X28885Y12313D01*
G01X28972Y12428D01*
G01X29000Y12492D01*
G01X29027Y12428D01*
G01X29114Y12313D01*
G01X29227Y12228D01*
G01X29357Y12171D01*
G01X29500Y12153D01*
G01X29642Y12171D01*
G01X29773Y12228D01*
G01X29885Y12313D01*
G01X29972Y12428D01*
G01X30027Y12557D01*
G01X30046Y12700D01*
G01X30027Y12842D01*
G01X29972Y12973D01*
G01X29885Y13086D01*
G01X29772Y13171D01*
G01X29642Y13228D01*
G01X29500Y13246D01*
G01X29357Y13228D01*
G01X29227Y13171D01*
G01X29114Y13086D01*
G01X29027Y12973D01*
G01X29000Y12907D01*
G01X28972Y12973D01*
G01X28885Y13086D01*
G01X28772Y13171D01*
G01X28642Y13228D01*
G01X28500Y13246D01*
G01X28357Y13228D01*
G01X28227Y13171D01*
G01X28114Y13086D01*
G01X28027Y12973D01*
G01X28000Y12907D01*
G01X27972Y12973D01*
G01X27885Y13086D01*
G01X27772Y13171D01*
G01X27642Y13228D01*
G01X27500Y13246D01*
G01X27357Y13228D01*
G01X27227Y13171D01*
G01X27114Y13086D01*
G01X27027Y12973D01*
G01X27000Y12907D01*
G01X26972Y12973D01*
G01X26885Y13086D01*
G01X26772Y13171D01*
G01X26642Y13228D01*
G01X26500Y13246D01*
G01X26357Y13228D01*
G01X26227Y13171D01*
G01X26114Y13086D01*
G01X26027Y12973D01*
G01X26000Y12907D01*
G01X25972Y12973D01*
G01X25885Y13086D01*
G01X25772Y13171D01*
G01X25642Y13228D01*
G01X25500Y13246D01*
G01X25357Y13228D01*
G01X25227Y13171D01*
G01X25114Y13086D01*
G01X25027Y12973D01*
G01X25000Y12907D01*
G01X24972Y12973D01*
G01X24885Y13086D01*
G01X24772Y13171D01*
G01X24642Y13228D01*
G01X24500Y13246D01*
G01X24357Y13228D01*
G01X24227Y13171D01*
G01X24114Y13086D01*
G01X24027Y12973D01*
G01X24000Y12907D01*
G01X23972Y12973D01*
G01X23885Y13086D01*
G01X23772Y13171D01*
G01X23642Y13228D01*
G01X23500Y13246D01*
G01X23357Y13228D01*
G01X23227Y13171D01*
G01X23114Y13086D01*
G01X23027Y12973D01*
G01X23000Y12907D01*
G01X22972Y12973D01*
G01X22885Y13086D01*
G01X22772Y13171D01*
G01X22642Y13228D01*
G01X22500Y13246D01*
G01X22357Y13228D01*
G01X22227Y13171D01*
G01X22114Y13086D01*
G01X22027Y12973D01*
G01X22000Y12907D01*
G01X21972Y12973D01*
G01X21885Y13086D01*
G01X21772Y13171D01*
G01X21642Y13228D01*
G01X21500Y13246D01*
G01X21357Y13228D01*
G01X21227Y13171D01*
G01X21114Y13086D01*
G01X21027Y12973D01*
G01X21000Y12907D01*
G01X20972Y12973D01*
G01X20885Y13086D01*
G01X20772Y13171D01*
G01X20642Y13228D01*
G01X20500Y13246D01*
G01X20357Y13228D01*
G01X20227Y13171D01*
G01X20114Y13086D01*
G01X20027Y12973D01*
G01X20000Y12907D01*
G01X19972Y12973D01*
G01X19885Y13086D01*
G01X19772Y13171D01*
G01X19642Y13228D01*
G01X19500Y13246D01*
G01X19357Y13228D01*
G01X19227Y13171D01*
G01X19114Y13086D01*
G01X19027Y12973D01*
G01X19000Y12907D01*
G01X18972Y12973D01*
G01X18885Y13086D01*
G01X18772Y13171D01*
G01X18642Y13228D01*
G01X18500Y13246D01*
G01X18357Y13228D01*
G01X18227Y13171D01*
G01X18114Y13086D01*
G01X18027Y12973D01*
G01X18000Y12907D01*
G01X17972Y12973D01*
G01X17885Y13086D01*
G01X17772Y13171D01*
G01X17642Y13228D01*
G01X17500Y13246D01*
G01X17357Y13228D01*
G01X17235Y13176D01*
G01X17207Y13207D01*
G01X17193Y13221D01*
G01X17193Y13557D01*
G01X17222Y13576D01*
G01X17234Y13584D01*
G01X17246Y13594D01*
G01X17256Y13603D01*
G01X17265Y13615D01*
G01X17273Y13628D01*
G01X17339Y13726D01*
G01X17356Y13753D01*
G01X17361Y13767D01*
G01X17365Y13784D01*
G01X17369Y13798D01*
G01X17392Y13911D01*
G01X17393Y13919D01*
G01X17393Y13928D01*
G01X17396Y13936D01*
G01X17396Y13976D01*
G01X17193Y13976D01*
G01X17193Y14300D01*
G01X17172Y14411D01*
G01X17107Y14507D01*
G01X17011Y14571D01*
G01X16900Y14594D01*
G01X16788Y14571D01*
G01X16714Y14521D01*
G01X16714Y14623D01*
G01X16750Y14623D01*
G01X16750Y14986D01*
G01X17050Y14986D01*
G01X17050Y14623D01*
G01X17396Y14623D01*
G01X17396Y14663D01*
G01X17393Y14671D01*
G01X17393Y14680D01*
G01X17392Y14688D01*
G01X17369Y14801D01*
G01X17365Y14815D01*
G01X17361Y14832D01*
G01X17356Y14846D01*
G01X17339Y14873D01*
G01X17273Y14971D01*
G01X17265Y14984D01*
G01X17264Y14986D01*
G01X17535Y14986D01*
G01X17534Y14984D01*
G01X17526Y14971D01*
G01X17460Y14873D01*
G01X17443Y14846D01*
G01X17438Y14832D01*
G01X17434Y14815D01*
G01X17430Y14801D01*
G01X17407Y14688D01*
G01X17406Y14680D01*
G01X17406Y14671D01*
G01X17403Y14663D01*
G01X17403Y13936D01*
G01X17406Y13928D01*
G01X17406Y13919D01*
G01X17407Y13911D01*
G01X17430Y13798D01*
G01X17434Y13784D01*
G01X17438Y13767D01*
G01X17443Y13753D01*
G01X17460Y13726D01*
G01X17526Y13628D01*
G01X17534Y13615D01*
G01X17543Y13605D01*
G01X17553Y13594D01*
G01X17565Y13586D01*
G01X17576Y13576D01*
G01X17672Y13509D01*
G01X17685Y13501D01*
G01X17702Y13494D01*
G01X17715Y13488D01*
G01X17747Y13480D01*
G01X17864Y13457D01*
G01X17892Y13453D01*
G01X17907Y13453D01*
G01X17922Y13455D01*
G01X17938Y13457D01*
G01X18052Y13480D01*
G01X18065Y13484D01*
G01X18081Y13488D01*
G01X18096Y13494D01*
G01X18123Y13509D01*
G01X18222Y13576D01*
G01X18234Y13584D01*
G01X18246Y13594D01*
G01X18256Y13603D01*
G01X18265Y13615D01*
G01X18273Y13628D01*
G01X18339Y13726D01*
G01X18356Y13753D01*
G01X18361Y13767D01*
G01X18365Y13784D01*
G01X18369Y13798D01*
G01X18392Y13911D01*
G01X18393Y13919D01*
G01X18393Y13928D01*
G01X18396Y13936D01*
G01X18396Y14663D01*
G01X18393Y14671D01*
G01X18393Y14680D01*
G01X18392Y14688D01*
G01X18369Y14801D01*
G01X18365Y14815D01*
G01X18361Y14832D01*
G01X18356Y14846D01*
G01X18339Y14873D01*
G01X18273Y14971D01*
G01X18265Y14984D01*
G01X18264Y14986D01*
G01X18535Y14986D01*
G01X18534Y14984D01*
G01X18526Y14971D01*
G01X18460Y14873D01*
G01X18443Y14846D01*
G01X18438Y14832D01*
G01X18434Y14815D01*
G01X18430Y14801D01*
G01X18407Y14688D01*
G01X18406Y14680D01*
G01X18406Y14671D01*
G01X18403Y14663D01*
G01X18403Y13936D01*
G01X18406Y13928D01*
G01X18406Y13919D01*
G01X18407Y13911D01*
G01X18430Y13798D01*
G01X18434Y13784D01*
G01X18438Y13767D01*
G01X18443Y13753D01*
G01X18460Y13726D01*
G01X18526Y13628D01*
G01X18534Y13615D01*
G01X18543Y13605D01*
G01X18553Y13594D01*
G01X18565Y13586D01*
G01X18576Y13576D01*
G01X18672Y13509D01*
G01X18685Y13501D01*
G01X18702Y13494D01*
G01X18715Y13488D01*
G01X18747Y13480D01*
G01X18864Y13457D01*
G01X18892Y13453D01*
G01X18907Y13453D01*
G01X18922Y13455D01*
G01X18938Y13457D01*
G01X19052Y13480D01*
G01X19065Y13484D01*
G01X19081Y13488D01*
G01X19096Y13494D01*
G01X19123Y13509D01*
G01X19222Y13576D01*
G01X19234Y13584D01*
G01X19246Y13594D01*
G01X19256Y13603D01*
G01X19265Y13615D01*
G01X19273Y13628D01*
G01X19339Y13726D01*
G01X19356Y13753D01*
G01X19361Y13767D01*
G01X19365Y13784D01*
G01X19369Y13798D01*
G01X19392Y13911D01*
G01X19393Y13919D01*
G01X19393Y13928D01*
G01X19396Y13936D01*
G01X19396Y14663D01*
G01X19393Y14671D01*
G01X19393Y14680D01*
G01X19392Y14688D01*
G01X19369Y14801D01*
G01X19365Y14815D01*
G01X19361Y14832D01*
G01X19356Y14846D01*
G01X19339Y14873D01*
G01X19273Y14971D01*
G01X19265Y14984D01*
G01X19264Y14986D01*
G01X19535Y14986D01*
G01X19534Y14984D01*
G01X19526Y14971D01*
G01X19460Y14873D01*
G01X19443Y14846D01*
G01X19438Y14832D01*
G01X19434Y14815D01*
G01X19430Y14801D01*
G01X19407Y14688D01*
G01X19406Y14680D01*
G01X19406Y14671D01*
G01X19403Y14663D01*
G01X19403Y13936D01*
G01X19406Y13928D01*
G01X19406Y13919D01*
G01X19407Y13911D01*
G01X19430Y13798D01*
G01X19434Y13784D01*
G01X19438Y13767D01*
G01X19443Y13753D01*
G01X19460Y13726D01*
G01X19526Y13628D01*
G01X19534Y13615D01*
G01X19543Y13605D01*
G01X19553Y13594D01*
G01X19565Y13586D01*
G01X19576Y13576D01*
G01X19672Y13509D01*
G01X19685Y13501D01*
G01X19702Y13494D01*
G01X19715Y13488D01*
G01X19747Y13480D01*
G01X19864Y13457D01*
G01X19892Y13453D01*
G01X19907Y13453D01*
G01X19922Y13455D01*
G01X19938Y13457D01*
G01X20052Y13480D01*
G01X20065Y13484D01*
G01X20081Y13488D01*
G01X20096Y13494D01*
G01X20123Y13509D01*
G01X20222Y13576D01*
G01X20234Y13584D01*
G01X20246Y13594D01*
G01X20256Y13603D01*
G01X20265Y13615D01*
G01X20273Y13628D01*
G01X20339Y13726D01*
G01X20356Y13753D01*
G01X20361Y13767D01*
G01X20365Y13784D01*
G01X20369Y13798D01*
G01X20392Y13911D01*
G01X20393Y13919D01*
G01X20393Y13928D01*
G01X20396Y13936D01*
G01X20396Y14663D01*
G01X20393Y14671D01*
G01X20393Y14680D01*
G01X20392Y14688D01*
G01X20369Y14801D01*
G01X20365Y14815D01*
G01X20361Y14832D01*
G01X20356Y14846D01*
G01X20339Y14873D01*
G01X20314Y14911D01*
G01X20314Y15000D01*
G01X20310Y15050D01*
G01X20297Y15098D01*
G01X20280Y15142D01*
G01X20253Y15184D01*
G01X20222Y15221D01*
G01X19922Y15521D01*
G01X19884Y15553D01*
G01X19842Y15580D01*
G01X19797Y15598D01*
G01X19750Y15609D01*
G01X19700Y15613D01*
G01X16500Y15613D01*
G01X16450Y15609D01*
G01X16402Y15598D01*
G01X16357Y15580D01*
G01X16315Y15553D01*
G01X16277Y15521D01*
G01X16177Y15421D01*
G01X16146Y15384D01*
G01X16119Y15342D01*
G01X16102Y15298D01*
G01X16089Y15250D01*
G01X16085Y15200D01*
G01X16085Y15109D01*
G01X16081Y15111D01*
G01X16065Y15115D01*
G01X16052Y15119D01*
G01X15938Y15142D01*
G01X15922Y15144D01*
G01X15907Y15146D01*
G01X15892Y15146D01*
G01X15864Y15142D01*
G01X15747Y15119D01*
G01X15715Y15111D01*
G01X15702Y15105D01*
G01X15685Y15098D01*
G01X15672Y15090D01*
G01X15576Y15023D01*
G01X15565Y15013D01*
G01X15553Y15005D01*
G01X15543Y14994D01*
G01X15534Y14984D01*
G01X15526Y14971D01*
G01X15460Y14873D01*
G01X15443Y14846D01*
G01X15438Y14832D01*
G01X15434Y14815D01*
G01X15430Y14801D01*
G01X15407Y14688D01*
G01X15406Y14680D01*
G01X15406Y14671D01*
G01X15403Y14663D01*
G01X15403Y13936D01*
G01X15406Y13928D01*
G01X15406Y13919D01*
G01X15407Y13911D01*
G01X15430Y13798D01*
G01X15434Y13784D01*
G01X15438Y13767D01*
G01X15443Y13753D01*
G01X15460Y13726D01*
G01X15526Y13628D01*
G01X15534Y13615D01*
G01X15543Y13605D01*
G01X15553Y13594D01*
G01X15565Y13586D01*
G01X15576Y13576D01*
G01X15606Y13555D01*
G01X15606Y13476D01*
G01X15607Y13465D01*
G01X15611Y13442D01*
G01X15656Y13221D01*
G01X15642Y13228D01*
G01X15500Y13246D01*
G01X15357Y13228D01*
G01X15227Y13171D01*
G01X15114Y13086D01*
G01X15093Y13059D01*
G01X15093Y13494D01*
G01X15096Y13494D01*
G01X15123Y13509D01*
G01X15222Y13576D01*
G01X15234Y13584D01*
G01X15246Y13594D01*
G01X15256Y13603D01*
G01X15265Y13615D01*
G01X15273Y13628D01*
G01X15339Y13726D01*
G01X15356Y13753D01*
G01X15361Y13767D01*
G01X15365Y13784D01*
G01X15369Y13798D01*
G01X15392Y13911D01*
G01X15393Y13919D01*
G01X15393Y13928D01*
G01X15396Y13936D01*
G01X15396Y14663D01*
G01X15393Y14671D01*
G01X15393Y14680D01*
G01X15392Y14688D01*
G01X15369Y14801D01*
G01X15365Y14815D01*
G01X15361Y14832D01*
G01X15356Y14846D01*
G01X15339Y14873D01*
G01X15273Y14971D01*
G01X15265Y14984D01*
G01X15256Y14996D01*
G01X15246Y15005D01*
G01X15234Y15015D01*
G01X15222Y15023D01*
G01X15123Y15090D01*
G01X15096Y15105D01*
G01X15081Y15111D01*
G01X15065Y15115D01*
G01X15052Y15119D01*
G01X14938Y15142D01*
G01X14922Y15144D01*
G01X14907Y15146D01*
G01X14892Y15146D01*
G01X14864Y15142D01*
G01X14747Y15119D01*
G01X14715Y15111D01*
G01X14702Y15105D01*
G01X14685Y15098D01*
G01X14672Y15090D01*
G01X14576Y15023D01*
G01X14565Y15013D01*
G01X14553Y15005D01*
G01X14543Y14994D01*
G01X14534Y14984D01*
G01X14526Y14971D01*
G01X14460Y14873D01*
G01X14443Y14846D01*
G01X14438Y14832D01*
G01X14434Y14815D01*
G01X14430Y14801D01*
G01X14407Y14688D01*
G01X14406Y14680D01*
G01X14406Y14671D01*
G01X14403Y14663D01*
G01X14403Y13936D01*
G01X14406Y13928D01*
G01X14406Y13919D01*
G01X14407Y13911D01*
G01X14430Y13798D01*
G01X14434Y13784D01*
G01X14438Y13767D01*
G01X14443Y13753D01*
G01X14460Y13726D01*
G01X14506Y13657D01*
G01X14506Y12609D01*
G01X14193Y12921D01*
G01X14193Y13557D01*
G01X14222Y13576D01*
G01X14234Y13584D01*
G01X14246Y13594D01*
G01X14256Y13603D01*
G01X14265Y13615D01*
G01X14273Y13628D01*
G01X14339Y13726D01*
G01X14356Y13753D01*
G01X14361Y13767D01*
G01X14365Y13784D01*
G01X14369Y13798D01*
G01X14392Y13911D01*
G01X14393Y13919D01*
G01X14393Y13928D01*
G01X14396Y13936D01*
G01X14396Y14663D01*
G01X14393Y14671D01*
G01X14393Y14680D01*
G01X14392Y14688D01*
G01X14369Y14801D01*
G01X14365Y14815D01*
G01X14361Y14832D01*
G01X14356Y14846D01*
G01X14339Y14873D01*
G01X14273Y14971D01*
G01X14265Y14984D01*
G01X14256Y14996D01*
G01X14246Y15005D01*
G01X14234Y15015D01*
G01X14222Y15023D01*
G01X14123Y15090D01*
G01X14096Y15105D01*
G01X14081Y15111D01*
G01X14065Y15115D01*
G01X14052Y15119D01*
G01X13938Y15142D01*
G01X13922Y15144D01*
G01X13907Y15146D01*
G01X13892Y15146D01*
G01X13864Y15142D01*
G01X13747Y15119D01*
G01X13715Y15111D01*
G01X13702Y15105D01*
G01X13685Y15098D01*
G01X13672Y15090D01*
G01X13576Y15023D01*
G01X13565Y15013D01*
G01X13553Y15005D01*
G01X13543Y14994D01*
G01X13534Y14984D01*
G01X13526Y14971D01*
G01X13460Y14873D01*
G01X13443Y14846D01*
G01X13438Y14832D01*
G01X13434Y14815D01*
G01X13430Y14801D01*
G01X13407Y14688D01*
G01X13406Y14680D01*
G01X13406Y14671D01*
G01X13403Y14663D01*
G01X13403Y13936D01*
G01X13406Y13928D01*
G01X13406Y13919D01*
G01X13407Y13911D01*
G01X13430Y13798D01*
G01X13434Y13784D01*
G01X13438Y13767D01*
G01X13443Y13753D01*
G01X13460Y13726D01*
G01X13526Y13628D01*
G01X13534Y13615D01*
G01X13543Y13605D01*
G01X13553Y13594D01*
G01X13565Y13586D01*
G01X13576Y13576D01*
G01X13606Y13555D01*
G01X13606Y12909D01*
G01X13193Y13321D01*
G01X13193Y13557D01*
G01X13222Y13576D01*
G01X13234Y13584D01*
G01X13246Y13594D01*
G01X13256Y13603D01*
G01X13265Y13615D01*
G01X13273Y13628D01*
G01X13339Y13726D01*
G01X13356Y13753D01*
G01X13361Y13767D01*
G01X13365Y13784D01*
G01X13369Y13798D01*
G01X13392Y13911D01*
G01X13393Y13919D01*
G01X13393Y13928D01*
G01X13396Y13936D01*
G01X13396Y14663D01*
G01X13393Y14671D01*
G01X13393Y14680D01*
G01X13392Y14688D01*
G01X13369Y14801D01*
G01X13365Y14815D01*
G01X13361Y14832D01*
G01X13356Y14846D01*
G01X13339Y14873D01*
G01X13273Y14971D01*
G01X13265Y14984D01*
G01X13256Y14996D01*
G01X13246Y15005D01*
G01X13234Y15015D01*
G01X13222Y15023D01*
G01X13123Y15090D01*
G01X13096Y15105D01*
G01X13081Y15111D01*
G01X13065Y15115D01*
G01X13052Y15119D01*
G01X12938Y15142D01*
G01X12922Y15144D01*
G01X12907Y15146D01*
G01X12892Y15146D01*
G01X12864Y15142D01*
G01X12747Y15119D01*
G01X12715Y15111D01*
G01X12702Y15105D01*
G01X12685Y15098D01*
G01X12672Y15090D01*
G01X12576Y15023D01*
G01X12565Y15013D01*
G01X12553Y15005D01*
G01X12543Y14994D01*
G01X12534Y14984D01*
G01X12526Y14971D01*
G01X12460Y14873D01*
G01X12443Y14846D01*
G01X12438Y14832D01*
G01X12434Y14815D01*
G01X12430Y14801D01*
G01X12407Y14688D01*
G01X12406Y14680D01*
G01X12406Y14671D01*
G01X12403Y14663D01*
G01X12403Y13936D01*
G01X12406Y13928D01*
G01X12406Y13919D01*
G01X12407Y13911D01*
G01X12430Y13798D01*
G01X12434Y13784D01*
G01X12438Y13767D01*
G01X12443Y13753D01*
G01X12460Y13726D01*
G01X12526Y13628D01*
G01X12534Y13615D01*
G01X12543Y13605D01*
G01X12553Y13594D01*
G01X12565Y13586D01*
G01X12576Y13576D01*
G01X12606Y13555D01*
G01X12606Y13209D01*
G01X12231Y13584D01*
G01X12234Y13584D01*
G01X12246Y13594D01*
G01X12256Y13603D01*
G01X12265Y13615D01*
G01X12273Y13628D01*
G01X12339Y13726D01*
G01X12356Y13753D01*
G01X12361Y13767D01*
G01X12365Y13784D01*
G01X12369Y13798D01*
G01X12392Y13911D01*
G01X12393Y13919D01*
G01X12393Y13928D01*
G01X12396Y13936D01*
G01X12396Y14663D01*
G01X12393Y14671D01*
G01X12393Y14680D01*
G01X12392Y14688D01*
G01X12369Y14801D01*
G01X12365Y14815D01*
G01X12361Y14832D01*
G01X12356Y14846D01*
G01X12339Y14873D01*
G01X12273Y14971D01*
G01X12265Y14984D01*
G01X12256Y14996D01*
G01X12246Y15005D01*
G01X12234Y15015D01*
G01X12222Y15023D01*
G01X12123Y15090D01*
G01X12096Y15105D01*
G01X12081Y15111D01*
G01X12065Y15115D01*
G01X12052Y15119D01*
G01X11938Y15142D01*
G01X11922Y15144D01*
G01X11907Y15146D01*
G01X11892Y15146D01*
G01X11864Y15142D01*
G01X11747Y15119D01*
G01X11715Y15111D01*
G01X11702Y15105D01*
G01X11685Y15098D01*
G01X11672Y15090D01*
G01X11576Y15023D01*
G01X11565Y15013D01*
G01X11553Y15005D01*
G01X11543Y14994D01*
G01X11534Y14984D01*
G01X11526Y14971D01*
G01X11460Y14873D01*
G01X11443Y14846D01*
G01X11438Y14832D01*
G01X11434Y14815D01*
G01X11430Y14801D01*
G01X11407Y14688D01*
G01X11406Y14680D01*
G01X11406Y14671D01*
G01X11403Y14663D01*
G01X11403Y13936D01*
G01X11406Y13928D01*
G01X11406Y13919D01*
G01X11407Y13911D01*
G01X11430Y13798D01*
G01X11434Y13784D01*
G01X11438Y13767D01*
G01X11443Y13753D01*
G01X11460Y13726D01*
G01X11526Y13628D01*
G01X11534Y13615D01*
G01X11543Y13605D01*
G01X11553Y13594D01*
G01X11565Y13586D01*
G01X11576Y13576D01*
G01X11606Y13555D01*
G01X11606Y13500D01*
G01X11610Y13453D01*
G01X11619Y13409D01*
G01X11638Y13365D01*
G01X11661Y13328D01*
G01X11692Y13292D01*
G01X13157Y11826D01*
G01X13081Y11861D01*
G01X12938Y11888D01*
G01X12789Y11880D01*
G01X12647Y11834D01*
G01X12523Y11753D01*
G01X12465Y11692D01*
G01X10338Y11692D01*
G01X10330Y11703D01*
G01X10215Y11798D01*
G01X10081Y11861D01*
G01X9938Y11888D01*
G01X9789Y11880D01*
G01X9647Y11834D01*
G01X9523Y11753D01*
G01X9422Y11646D01*
G01X9352Y11517D01*
G01X9314Y11373D01*
G01X9314Y11226D01*
G01X9352Y11082D01*
G01X9422Y10953D01*
G01X9523Y10846D01*
G01X9647Y10765D01*
G01X9789Y10719D01*
G01X9938Y10711D01*
G01X10081Y10738D01*
G01X10215Y10801D01*
G01X10330Y10896D01*
G01X10338Y10907D01*
G01X12465Y10907D01*
G01X12523Y10846D01*
G01X12647Y10765D01*
G01X12789Y10719D01*
G01X12938Y10711D01*
G01X13081Y10738D01*
G01X13215Y10801D01*
G01X13330Y10896D01*
G01X13418Y11015D01*
G01X13472Y11153D01*
G01X13489Y11300D01*
G01X13472Y11446D01*
G01X13430Y11553D01*
G01X14692Y10292D01*
G01X14727Y10261D01*
G01X14731Y10259D01*
G01X8022Y10294D01*
G01X7693Y10621D01*
G01X7693Y12305D01*
G01X7738Y12338D01*
G01X7823Y12442D01*
G01X7877Y12565D01*
G01X7896Y12700D01*
G01X7877Y12834D01*
G01X7823Y12957D01*
G01X7738Y13061D01*
G01X7627Y13140D01*
G01X7500Y13186D01*
G01X7365Y13194D01*
G01X7234Y13167D01*
G01X7114Y13105D01*
G01X7015Y13013D01*
G01X6946Y12898D01*
G01X6907Y12767D01*
G01X6907Y12632D01*
G01X6946Y12501D01*
G01X7015Y12386D01*
G01X7106Y12301D01*
G01X7106Y10500D01*
G01X7110Y10453D01*
G01X7119Y10409D01*
G01X7138Y10365D01*
G01X7161Y10328D01*
G01X7192Y10292D01*
G01X7689Y9794D01*
G01X7022Y9794D01*
G01X6693Y10121D01*
G01X6693Y12305D01*
G01X6738Y12338D01*
G01X6823Y12442D01*
G01X6877Y12565D01*
G01X6896Y12700D01*
G01X6877Y12834D01*
G01X6823Y12957D01*
G01X6738Y13061D01*
G01X6627Y13140D01*
G01X6500Y13186D01*
G01X6365Y13194D01*
G01X6234Y13167D01*
G01X6114Y13105D01*
G01X6015Y13013D01*
G01X5946Y12898D01*
G01X5907Y12767D01*
G01X5907Y12632D01*
G01X5946Y12501D01*
G01X6015Y12386D01*
G01X6106Y12301D01*
G01X6106Y10000D01*
G01X6110Y9953D01*
G01X6119Y9909D01*
G01X6138Y9865D01*
G01X6161Y9828D01*
G01X6192Y9792D01*
G01X6589Y9394D01*
G01X6122Y9394D01*
G01X5693Y9821D01*
G01X5693Y12305D01*
G01X5738Y12338D01*
G01X5823Y12442D01*
G01X5877Y12565D01*
G01X5896Y12700D01*
G01X5877Y12834D01*
G01X5823Y12957D01*
G01X5738Y13061D01*
G01X5627Y13140D01*
G01X5500Y13186D01*
G01X5365Y13194D01*
G01X5234Y13167D01*
G01X5114Y13105D01*
G01X5015Y13013D01*
G01X4946Y12898D01*
G01X4907Y12767D01*
G01X4907Y12632D01*
G01X4946Y12501D01*
G01X5015Y12386D01*
G01X5106Y12301D01*
G01X5106Y9700D01*
G01X5110Y9653D01*
G01X5119Y9609D01*
G01X5138Y9565D01*
G01X5161Y9528D01*
G01X5192Y9492D01*
G01X5689Y8994D01*
G01X5022Y8994D01*
G01X4693Y9321D01*
G01X4693Y12305D01*
G01X4738Y12338D01*
G01X4823Y12442D01*
G01X4877Y12565D01*
G01X4896Y12700D01*
G01X4877Y12834D01*
G01X4823Y12957D01*
G01X4738Y13061D01*
G01X4627Y13140D01*
G01X4500Y13186D01*
G01X4365Y13194D01*
G01X4234Y13167D01*
G01X4114Y13105D01*
G01X4015Y13013D01*
G01X3946Y12898D01*
G01X3907Y12767D01*
G01X3907Y12632D01*
G01X3946Y12501D01*
G01X4015Y12386D01*
G01X4106Y12301D01*
G01X4106Y9200D01*
G01X4110Y9153D01*
G01X4119Y9109D01*
G01X4138Y9065D01*
G01X4161Y9028D01*
G01X4192Y8992D01*
G01X4589Y8594D01*
G01X4122Y8594D01*
G01X3693Y9021D01*
G01X3693Y12305D01*
G01X3738Y12338D01*
G01X3823Y12442D01*
G01X3877Y12565D01*
G01X3896Y12700D01*
G01X3877Y12834D01*
G01X3823Y12957D01*
G01X3738Y13061D01*
G01X3627Y13140D01*
G01X3500Y13186D01*
G01X3365Y13194D01*
G01X3234Y13167D01*
G01X3114Y13105D01*
G01X3015Y13013D01*
G01X2946Y12898D01*
G01X2907Y12767D01*
G01X2907Y12632D01*
G01X2946Y12501D01*
G01X3015Y12386D01*
G01X3106Y12301D01*
G01X3106Y8900D01*
G01X3110Y8853D01*
G01X3119Y8809D01*
G01X3138Y8765D01*
G01X3161Y8728D01*
G01X3192Y8692D01*
G01X3689Y8194D01*
G01X3022Y8194D01*
G01X2693Y8521D01*
G01X2693Y12305D01*
G01X2738Y12338D01*
G01X2823Y12442D01*
G01X2877Y12565D01*
G01X2896Y12700D01*
G01X2877Y12834D01*
G01X2823Y12957D01*
G01X2738Y13061D01*
G01X2627Y13140D01*
G01X2500Y13186D01*
G01X2365Y13194D01*
G01X2234Y13167D01*
G01X2114Y13105D01*
G01X2015Y13013D01*
G01X1946Y12898D01*
G01X1907Y12767D01*
G01X1907Y12632D01*
G01X1946Y12501D01*
G01X2015Y12386D01*
G01X2106Y12301D01*
G01X2106Y8400D01*
G01X2110Y8353D01*
G01X2119Y8309D01*
G01X2138Y8265D01*
G01X2161Y8228D01*
G01X2192Y8192D01*
G01X2589Y7794D01*
G01X2222Y7794D01*
G01X1693Y8321D01*
G01X1693Y12305D01*
G01X1738Y12338D01*
G01X1823Y12442D01*
G01X1877Y12565D01*
G01X1896Y12700D01*
G01X1877Y12834D01*
G01X1823Y12957D01*
G01X1738Y13061D01*
G01X1627Y13140D01*
G01X1500Y13186D01*
G01X1365Y13194D01*
G01X1234Y13167D01*
G01X1114Y13105D01*
G01X1015Y13013D01*
G01X946Y12898D01*
G01X907Y12767D01*
G01X907Y12632D01*
G01X946Y12501D01*
G01X1015Y12386D01*
G01X1106Y12301D01*
G01X1106Y8200D01*
G01X1110Y8153D01*
G01X1119Y8109D01*
G01X1138Y8065D01*
G01X1161Y8028D01*
G01X1192Y7992D01*
G01X1892Y7292D01*
G01X1927Y7261D01*
G01X1965Y7238D01*
G01X2010Y7219D01*
G01X2053Y7209D01*
G01X2100Y7205D01*
G01X13189Y7205D01*
G01X12877Y6894D01*
G01X11200Y6894D01*
G01X11153Y6890D01*
G01X11110Y6880D01*
G01X11065Y6861D01*
G01X11027Y6838D01*
G01X10992Y6807D01*
G01X9892Y5707D01*
G01X9861Y5671D01*
G01X9838Y5634D01*
G01X9819Y5590D01*
G01X9810Y5546D01*
G01X9806Y5500D01*
G01X9806Y3521D01*
G01X9473Y3190D01*
G01X9485Y3300D01*
G01X9468Y3463D01*
G01X9418Y3619D01*
G01X9335Y3761D01*
G01X9226Y3884D01*
G01X9093Y3980D01*
G01X8942Y4048D01*
G01X8781Y4082D01*
G01X8693Y4082D01*
G01X8693Y6305D01*
G01X8738Y6338D01*
G01X8823Y6442D01*
G01X8872Y6550D01*
G01X8693Y6550D01*
G01X8693Y6700D01*
G01X8672Y6811D01*
G01X8646Y6850D01*
G01X8872Y6850D01*
G01X8823Y6957D01*
G01X8738Y7061D01*
G01X8627Y7140D01*
G01X8550Y7167D01*
G01X8550Y6946D01*
G01X8511Y6971D01*
G01X8400Y6994D01*
G01X8288Y6971D01*
G01X8250Y6946D01*
G01X8250Y7171D01*
G01X8234Y7167D01*
G01X8114Y7105D01*
G01X8015Y7013D01*
G01X7946Y6898D01*
G01X7931Y6850D01*
G01X8153Y6850D01*
G01X8127Y6811D01*
G01X8106Y6700D01*
G01X8106Y6550D01*
G01X7931Y6550D01*
G01X7946Y6501D01*
G01X8015Y6386D01*
G01X8106Y6301D01*
G01X8106Y4684D01*
G01X8027Y4740D01*
G01X7961Y4763D01*
G01X7792Y5017D01*
G01X7792Y6403D01*
G01X7823Y6442D01*
G01X7877Y6565D01*
G01X7896Y6700D01*
G01X7877Y6834D01*
G01X7823Y6957D01*
G01X7738Y7061D01*
G01X7627Y7140D01*
G01X7500Y7186D01*
G01X7365Y7194D01*
G01X7234Y7167D01*
G01X7114Y7105D01*
G01X7015Y7013D01*
G01X6946Y6898D01*
G01X6907Y6767D01*
G01X6907Y6632D01*
G01X6946Y6501D01*
G01X7007Y6400D01*
G01X7007Y4900D01*
G01X7010Y4853D01*
G01X7018Y4807D01*
G01X7031Y4763D01*
G01X7050Y4721D01*
G01X7073Y4682D01*
G01X7307Y4330D01*
G01X7307Y4232D01*
G01X7346Y4101D01*
G01X7415Y3986D01*
G01X7514Y3894D01*
G01X7634Y3832D01*
G01X7765Y3805D01*
G01X7900Y3813D01*
G01X8027Y3859D01*
G01X8106Y3915D01*
G01X8106Y3900D01*
G01X8107Y3871D01*
G01X8111Y3846D01*
G01X8118Y3821D01*
G01X8064Y3761D01*
G01X7981Y3619D01*
G01X7931Y3463D01*
G01X7914Y3300D01*
G01X7931Y3136D01*
G01X7981Y2980D01*
G01X8064Y2838D01*
G01X8173Y2715D01*
G01X8306Y2619D01*
G01X8364Y2594D01*
G01X7600Y2594D01*
G01X7553Y2590D01*
G01X7510Y2580D01*
G01X7465Y2561D01*
G01X7427Y2538D01*
G01X7392Y2507D01*
G01X6814Y1930D01*
G01X6780Y1990D01*
G01X6669Y2111D01*
G01X6538Y2207D01*
G01X6385Y2276D01*
G01X6226Y2309D01*
G01X6061Y2309D01*
G01X5902Y2276D01*
G01X5750Y2207D01*
G01X5618Y2111D01*
G01X5507Y1990D01*
G01X5426Y1848D01*
G01X5376Y1692D01*
G01X5357Y1528D01*
G01X5376Y1363D01*
G01X5426Y1207D01*
G01X5507Y1065D01*
G01X5618Y944D01*
G01X5750Y848D01*
G01X5902Y780D01*
G01X6061Y746D01*
G37*
G36*
G01X2931Y6850D02*
G01X3250Y6850D01*
G01X3250Y7171D01*
G01X3234Y7167D01*
G01X3114Y7105D01*
G01X3015Y7013D01*
G01X2946Y6898D01*
G01X2931Y6850D01*
G37*
G36*
G01X3550Y6850D02*
G01X3872Y6850D01*
G01X3823Y6957D01*
G01X3738Y7061D01*
G01X3627Y7140D01*
G01X3550Y7167D01*
G01X3550Y6850D01*
G37*
G36*
G01X29580Y3203D02*
G01X30380Y3203D01*
G01X30439Y3213D01*
G01X30496Y3242D01*
G01X30538Y3284D01*
G01X30565Y3340D01*
G01X30576Y3400D01*
G01X30576Y4200D01*
G01X30565Y4259D01*
G01X30538Y4315D01*
G01X30496Y4357D01*
G01X30439Y4386D01*
G01X30380Y4396D01*
G01X29580Y4396D01*
G01X29519Y4386D01*
G01X29464Y4357D01*
G01X29422Y4315D01*
G01X29393Y4259D01*
G01X29384Y4200D01*
G01X29384Y3400D01*
G01X29393Y3340D01*
G01X29422Y3284D01*
G01X29464Y3242D01*
G01X29519Y3213D01*
G01X29580Y3203D01*
G37*
G36*
G01X3550Y6232D02*
G01X3627Y6259D01*
G01X3738Y6338D01*
G01X3823Y6442D01*
G01X3872Y6550D01*
G01X3550Y6550D01*
G01X3550Y6232D01*
G37*
G36*
G01X3250Y6228D02*
G01X3250Y6550D01*
G01X2931Y6550D01*
G01X2946Y6501D01*
G01X3015Y6386D01*
G01X3114Y6294D01*
G01X3234Y6232D01*
G01X3250Y6228D01*
G37*
G36*
G01X27947Y3207D02*
G01X28092Y3207D01*
G01X28231Y3242D01*
G01X28357Y3309D01*
G01X28465Y3403D01*
G01X28547Y3523D01*
G01X28597Y3657D01*
G01X28615Y3800D01*
G01X28597Y3942D01*
G01X28547Y4076D01*
G01X28465Y4196D01*
G01X28357Y4290D01*
G01X28231Y4357D01*
G01X28092Y4392D01*
G01X27947Y4392D01*
G01X27807Y4357D01*
G01X27681Y4290D01*
G01X27573Y4196D01*
G01X27492Y4076D01*
G01X27442Y3942D01*
G01X27423Y3800D01*
G01X27442Y3657D01*
G01X27492Y3523D01*
G01X27573Y3403D01*
G01X27681Y3309D01*
G01X27807Y3242D01*
G01X27947Y3207D01*
G37*
G36*
G01X2365Y6205D02*
G01X2500Y6213D01*
G01X2627Y6259D01*
G01X2738Y6338D01*
G01X2823Y6442D01*
G01X2877Y6565D01*
G01X2896Y6700D01*
G01X2877Y6834D01*
G01X2823Y6957D01*
G01X2738Y7061D01*
G01X2627Y7140D01*
G01X2500Y7186D01*
G01X2365Y7194D01*
G01X2234Y7167D01*
G01X2114Y7105D01*
G01X2015Y7013D01*
G01X1946Y6898D01*
G01X1907Y6767D01*
G01X1907Y6632D01*
G01X1946Y6501D01*
G01X2015Y6386D01*
G01X2114Y6294D01*
G01X2234Y6232D01*
G01X2365Y6205D01*
G37*
G36*
G01X1365Y6205D02*
G01X1500Y6213D01*
G01X1627Y6259D01*
G01X1738Y6338D01*
G01X1823Y6442D01*
G01X1877Y6565D01*
G01X1896Y6700D01*
G01X1877Y6834D01*
G01X1823Y6957D01*
G01X1738Y7061D01*
G01X1627Y7140D01*
G01X1500Y7186D01*
G01X1365Y7194D01*
G01X1234Y7167D01*
G01X1114Y7105D01*
G01X1015Y7013D01*
G01X946Y6898D01*
G01X907Y6767D01*
G01X907Y6632D01*
G01X946Y6501D01*
G01X1015Y6386D01*
G01X1114Y6294D01*
G01X1234Y6232D01*
G01X1365Y6205D01*
G37*
G36*
G01X29600Y6153D02*
G01X29742Y6171D01*
G01X29873Y6228D01*
G01X29985Y6313D01*
G01X30072Y6428D01*
G01X30127Y6557D01*
G01X30146Y6700D01*
G01X30127Y6842D01*
G01X30072Y6973D01*
G01X29985Y7086D01*
G01X29872Y7171D01*
G01X29742Y7228D01*
G01X29600Y7246D01*
G01X29457Y7228D01*
G01X29327Y7171D01*
G01X29214Y7086D01*
G01X29127Y6973D01*
G01X29072Y6842D01*
G01X29053Y6700D01*
G01X29072Y6557D01*
G01X29127Y6428D01*
G01X29214Y6313D01*
G01X29327Y6228D01*
G01X29457Y6171D01*
G01X29600Y6153D01*
G37*
G36*
G01X3580Y3303D02*
G01X4380Y3303D01*
G01X4439Y3313D01*
G01X4496Y3342D01*
G01X4538Y3384D01*
G01X4565Y3440D01*
G01X4576Y3500D01*
G01X4576Y4236D01*
G01X5719Y5380D01*
G01X5765Y5434D01*
G01X5802Y5494D01*
G01X5830Y5559D01*
G01X5846Y5630D01*
G01X5852Y5700D01*
G01X5852Y6505D01*
G01X5877Y6565D01*
G01X5896Y6700D01*
G01X5877Y6834D01*
G01X5823Y6957D01*
G01X5738Y7061D01*
G01X5627Y7140D01*
G01X5500Y7186D01*
G01X5365Y7194D01*
G01X5234Y7167D01*
G01X5114Y7105D01*
G01X5015Y7013D01*
G01X4946Y6898D01*
G01X4907Y6767D01*
G01X4907Y6632D01*
G01X4946Y6501D01*
G01X4947Y6498D01*
G01X4947Y5888D01*
G01X3660Y4600D01*
G01X3614Y4546D01*
G01X3584Y4496D01*
G01X3580Y4496D01*
G01X3519Y4486D01*
G01X3464Y4457D01*
G01X3422Y4415D01*
G01X3393Y4359D01*
G01X3384Y4300D01*
G01X3384Y3500D01*
G01X3393Y3440D01*
G01X3422Y3384D01*
G01X3464Y3342D01*
G01X3519Y3313D01*
G01X3580Y3303D01*
G37*

%LPD*%
G36*
G01X22502Y3503D02*
G01X22530Y3559D01*
G01X22530Y3563D01*
G01X22546Y3503D01*
G01X22502Y3503D01*
G37*

%LPC*%

%LPD*%
G36*
G01X21688Y3503D02*
G01X21688Y3526D01*
G01X21697Y3503D01*
G01X21688Y3503D01*
G37*

%LPC*%

%LPD*%
G36*
G01X22600Y4007D02*
G01X22552Y4073D01*
G01X22552Y4200D01*
G01X22546Y4269D01*
G01X22530Y4340D01*
G01X22502Y4405D01*
G01X22465Y4465D01*
G01X22419Y4519D01*
G01X22193Y4746D01*
G01X22253Y4746D01*
G01X22746Y4253D01*
G01X22746Y4167D01*
G01X22723Y4153D01*
G01X22622Y4046D01*
G01X22600Y4007D01*
G37*

%LPC*%

%LPD*%
G36*
G01X21000Y6907D02*
G01X20972Y6973D01*
G01X20885Y7086D01*
G01X20772Y7171D01*
G01X20693Y7205D01*
G01X21306Y7205D01*
G01X21227Y7171D01*
G01X21114Y7086D01*
G01X21027Y6973D01*
G01X21000Y6907D01*
G37*

%LPC*%

%LPD*%
G36*
G01X22000Y6907D02*
G01X21972Y6973D01*
G01X21885Y7086D01*
G01X21772Y7171D01*
G01X21693Y7205D01*
G01X22077Y7205D01*
G01X22161Y7121D01*
G01X22114Y7086D01*
G01X22027Y6973D01*
G01X22000Y6907D01*
G37*

%LPC*%

%LPD*%
G36*
G01X23000Y6907D02*
G01X22972Y6973D01*
G01X22885Y7086D01*
G01X22793Y7155D01*
G01X22793Y7200D01*
G01X22789Y7246D01*
G01X22780Y7290D01*
G01X22761Y7334D01*
G01X22738Y7371D01*
G01X22707Y7407D01*
G01X22510Y7605D01*
G01X22977Y7605D01*
G01X23206Y7378D01*
G01X23206Y7155D01*
G01X23114Y7086D01*
G01X23027Y6973D01*
G01X23000Y6907D01*
G37*

%LPC*%

%LPD*%
G36*
G01X24000Y6907D02*
G01X23972Y6973D01*
G01X23885Y7086D01*
G01X23793Y7155D01*
G01X23793Y7500D01*
G01X23789Y7546D01*
G01X23780Y7590D01*
G01X23761Y7634D01*
G01X23738Y7671D01*
G01X23707Y7707D01*
G01X23410Y8005D01*
G01X23777Y8005D01*
G01X24106Y7678D01*
G01X24106Y7076D01*
G01X24027Y6973D01*
G01X24000Y6907D01*
G37*

%LPC*%

%LPD*%
G36*
G01X25000Y6907D02*
G01X24972Y6973D01*
G01X24885Y7086D01*
G01X24772Y7171D01*
G01X24693Y7205D01*
G01X24693Y7800D01*
G01X24689Y7846D01*
G01X24680Y7890D01*
G01X24661Y7934D01*
G01X24638Y7971D01*
G01X24607Y8007D01*
G01X24210Y8405D01*
G01X24377Y8405D01*
G01X25106Y7678D01*
G01X25106Y7076D01*
G01X25027Y6973D01*
G01X25000Y6907D01*
G37*

%LPC*%

%LPD*%
G36*
G01X26000Y6907D02*
G01X25972Y6973D01*
G01X25885Y7086D01*
G01X25772Y7171D01*
G01X25693Y7205D01*
G01X25693Y7800D01*
G01X25689Y7846D01*
G01X25680Y7890D01*
G01X25661Y7934D01*
G01X25638Y7971D01*
G01X25607Y8007D01*
G01X24810Y8805D01*
G01X25477Y8805D01*
G01X26206Y8078D01*
G01X26206Y7155D01*
G01X26114Y7086D01*
G01X26027Y6973D01*
G01X26000Y6907D01*
G37*

%LPC*%

%LPD*%
G36*
G01X27000Y6907D02*
G01X26972Y6973D01*
G01X26885Y7086D01*
G01X26793Y7155D01*
G01X26793Y8200D01*
G01X26789Y8246D01*
G01X26780Y8290D01*
G01X26761Y8334D01*
G01X26738Y8371D01*
G01X26707Y8407D01*
G01X25910Y9205D01*
G01X26477Y9205D01*
G01X27206Y8478D01*
G01X27206Y7155D01*
G01X27114Y7086D01*
G01X27027Y6973D01*
G01X27000Y6907D01*
G37*

%LPC*%

%LPD*%
G36*
G01X28000Y6907D02*
G01X27972Y6973D01*
G01X27885Y7086D01*
G01X27793Y7155D01*
G01X27793Y8600D01*
G01X27789Y8646D01*
G01X27780Y8690D01*
G01X27761Y8734D01*
G01X27738Y8771D01*
G01X27707Y8807D01*
G01X26907Y9607D01*
G01X27477Y9605D01*
G01X28206Y8878D01*
G01X28206Y7155D01*
G01X28114Y7086D01*
G01X28027Y6973D01*
G01X28000Y6907D01*
G37*

%LPC*%

%LPD*%
G36*
G01X24010Y10794D02*
G01X25384Y12167D01*
G01X25500Y12153D01*
G01X25543Y12159D01*
G01X24177Y10794D01*
G01X24010Y10794D01*
G37*

%LPC*%

%LPD*%
G36*
G01X23410Y11094D02*
G01X24473Y12157D01*
G01X24500Y12153D01*
G01X24543Y12159D01*
G01X23477Y11094D01*
G01X23410Y11094D01*
G37*

%LPC*%

%LPD*%
G36*
G01X16122Y11694D02*
G01X15643Y12171D01*
G01X15764Y12223D01*
G01X15768Y12217D01*
G01X16180Y11694D01*
G01X16122Y11694D01*
G37*

%LPC*%

%LPD*%
G36*
G01X22769Y11986D02*
G01X22780Y12009D01*
G01X22789Y12053D01*
G01X22793Y12100D01*
G01X22793Y12244D01*
G01X22885Y12313D01*
G01X22972Y12428D01*
G01X23000Y12492D01*
G01X23027Y12428D01*
G01X23107Y12323D01*
G01X22769Y11986D01*
G37*

%LPC*%

%LPD*%
G36*
G01X16693Y11994D02*
G01X16561Y12161D01*
G01X16642Y12171D01*
G01X16706Y12200D01*
G01X16710Y12153D01*
G01X16719Y12109D01*
G01X16738Y12065D01*
G01X16761Y12028D01*
G01X16789Y11994D01*
G01X16693Y11994D01*
G37*

%LPC*%

%LPD*%
G36*
G01X21710Y11994D02*
G01X21738Y12028D01*
G01X21761Y12065D01*
G01X21780Y12109D01*
G01X21789Y12153D01*
G01X21793Y12200D01*
G01X21793Y12244D01*
G01X21885Y12313D01*
G01X21972Y12428D01*
G01X22000Y12492D01*
G01X22027Y12428D01*
G01X22114Y12313D01*
G01X22206Y12244D01*
G01X22206Y12221D01*
G01X21977Y11994D01*
G01X21710Y11994D01*
G37*

%LPC*%

%LPD*%
G36*
G01X17860Y12294D02*
G01X17885Y12313D01*
G01X17972Y12428D01*
G01X18000Y12492D01*
G01X18027Y12428D01*
G01X18114Y12313D01*
G01X18139Y12294D01*
G01X17860Y12294D01*
G37*

%LPC*%

%LPD*%
G36*
G01X18860Y12294D02*
G01X18885Y12313D01*
G01X18972Y12428D01*
G01X19000Y12492D01*
G01X19027Y12428D01*
G01X19114Y12313D01*
G01X19139Y12294D01*
G01X18860Y12294D01*
G37*

%LPC*%

%LPD*%
G36*
G01X19860Y12294D02*
G01X19885Y12313D01*
G01X19972Y12428D01*
G01X20000Y12492D01*
G01X20027Y12428D01*
G01X20114Y12313D01*
G01X20139Y12294D01*
G01X19860Y12294D01*
G37*

%LPC*%

%LPD*%
G36*
G01X20860Y12294D02*
G01X20885Y12313D01*
G01X20972Y12428D01*
G01X21000Y12492D01*
G01X21027Y12428D01*
G01X21114Y12313D01*
G01X21139Y12294D01*
G01X20860Y12294D01*
G37*

%LPC*%

%LPD*%
G54D11*
G01X6400Y6700D02*
G01X6400Y4900D01*
G01X5067Y3567D01*
G01X5100Y2400D01*
G01X5100Y2400D01*
G54D12*
G01X13580Y3800D02*
G01X15819Y3800D01*
G54D13*
G01X4400Y6700D02*
G01X4400Y6280D01*
G01X2019Y3900D01*
G01X3980Y3900D02*
G01X3980Y4280D01*
G01X5400Y5700D01*
G01X5400Y6700D01*
G01X22100Y3700D02*
G01X22100Y4200D01*
G01X21800Y4500D01*
G01X16519Y4500D01*
G01X15819Y3800D01*
G01X21100Y3700D02*
G01X21100Y2800D01*
G01X20600Y2300D01*
G01X13119Y2300D01*
G01X11619Y3800D01*
G54D14*
G01X23100Y3700D02*
G01X23100Y4400D01*
G01X22400Y5100D01*
G01X18100Y5100D01*
G01X16500Y6700D01*
G54D15*
G01X15900Y14300D02*
G01X15900Y13500D01*
G01X16000Y13000D01*
G01X16000Y12400D01*
G01X16550Y11700D01*
G01X22100Y11700D01*
G01X22500Y12100D01*
G01X22500Y12700D01*
G54D16*
G01X16500Y12700D02*
G01X16500Y13500D01*
G01X16500Y13600D01*
G01X16400Y13700D01*
G01X16400Y15200D01*
G01X16500Y15300D01*
G01X19700Y15300D01*
G01X20000Y15000D01*
G01X20000Y14400D01*
G01X19900Y14300D01*
G54D15*
G01X23500Y12700D02*
G01X23500Y12300D01*
G01X22600Y11400D01*
G01X16000Y11400D01*
G01X14800Y12600D01*
G01X14800Y14200D01*
G01X14900Y14300D01*
G01X13900Y14300D02*
G01X13900Y12800D01*
G01X15600Y11100D01*
G01X23000Y11100D01*
G01X24500Y12600D01*
G01X24500Y12700D01*
G01X12900Y14300D02*
G01X12900Y13200D01*
G01X15300Y10800D01*
G01X23600Y10800D01*
G01X25500Y12700D01*
G01X11900Y14300D02*
G01X11900Y13500D01*
G01X14900Y10500D01*
G01X24300Y10500D01*
G01X26500Y12700D01*
G01X1400Y12700D02*
G01X1400Y8200D01*
G01X2100Y7500D01*
G01X22200Y7500D01*
G01X22500Y7200D01*
G01X22500Y6700D01*
G01X2400Y12700D02*
G01X2400Y8400D01*
G01X2900Y7900D01*
G01X23100Y7900D01*
G01X23500Y7500D01*
G01X23500Y6700D01*
G01X3400Y12700D02*
G01X3400Y8900D01*
G01X4000Y8300D01*
G01X23900Y8300D01*
G01X24400Y7800D01*
G01X24400Y6800D01*
G01X24500Y6700D01*
G01X4400Y12700D02*
G01X4400Y9200D01*
G01X4900Y8700D01*
G01X24500Y8700D01*
G01X25400Y7800D01*
G01X25400Y6800D01*
G01X25500Y6700D01*
G01X5400Y12700D02*
G01X5400Y9700D01*
G01X6000Y9100D01*
G01X25600Y9100D01*
G01X26500Y8200D01*
G01X26500Y6700D01*
G01X6400Y12700D02*
G01X6400Y10000D01*
G01X6900Y9500D01*
G01X26600Y9500D01*
G01X27500Y8600D01*
G01X27500Y6700D01*
G01X7400Y12700D02*
G01X7400Y10500D01*
G01X7900Y10000D01*
G01X27600Y9900D01*
G01X28500Y9000D01*
G01X28500Y6700D01*
G01X16900Y14300D02*
G01X16900Y13100D01*
G01X17000Y13000D01*
G01X17000Y12200D01*
G01X17200Y12000D01*
G01X21300Y12000D01*
G01X21500Y12200D01*
G01X21500Y12700D01*
G01X20500Y6700D02*
G01X20500Y6800D01*
G01X20200Y7100D01*
G01X20100Y7200D01*
G01X13600Y7200D01*
G01X13000Y6600D01*
G01X8400Y6700D02*
G01X8400Y3900D01*
G01X8700Y3300D01*
G01X6144Y1528D02*
G01X6150Y1507D01*
G01X6800Y1500D01*
G01X7600Y2300D01*
G01X9000Y2300D01*
G01X10100Y3400D01*
G01X10100Y5500D01*
G01X11200Y6600D01*
G01X13000Y6600D01*
G54D11*
G01X12900Y11300D02*
G01X9900Y11300D01*
G01X7400Y6700D02*
G01X7400Y4900D01*
G01X7800Y4300D01*
G54D17*
G01X15500Y6700D03*
G54D18*
G01X16500Y6700D03*
G01X17500Y6700D03*
G01X18500Y6700D03*
G01X19500Y6700D03*
G01X20500Y6700D03*
G01X21500Y6700D03*
G01X22500Y6700D03*
G01X23500Y6700D03*
G01X24500Y6700D03*
G01X25500Y6700D03*
G01X26500Y6700D03*
G01X27500Y6700D03*
G01X28500Y6700D03*
G01X29600Y6700D03*
G01X15500Y12700D03*
G01X16500Y12700D03*
G01X17500Y12700D03*
G01X18500Y12700D03*
G01X19500Y12700D03*
G01X20500Y12700D03*
G01X21500Y12700D03*
G01X22500Y12700D03*
G01X23500Y12700D03*
G01X24500Y12700D03*
G01X25500Y12700D03*
G01X26500Y12700D03*
G01X27500Y12700D03*
G01X28500Y12700D03*
G01X29500Y12700D03*
G54D20*
G01X11619Y3800D03*
G54D21*
G01X13580Y3800D03*
G54D20*
G01X3980Y3900D03*
G54D21*
G01X2019Y3900D03*
G54D20*
G01X29980Y3800D03*
G54D21*
G01X28019Y3800D03*
G54D23*
G01X21100Y3700D03*
G54D12*
G01X22100Y3700D03*
G01X23100Y3700D03*
G01X24100Y3700D03*
G54D20*
G01X15819Y3800D03*
G54D21*
G01X17780Y3800D03*
G54D25*
G01X3400Y12700D03*
G01X2400Y12700D03*
G01X1400Y12700D03*
G01X4400Y12700D03*
G01X5400Y12700D03*
G01X6400Y12700D03*
G01X7400Y12700D03*
G01X8400Y12700D03*
G01X8400Y6700D03*
G01X7400Y6700D03*
G01X6400Y6700D03*
G01X5400Y6700D03*
G01X4400Y6700D03*
G01X3400Y6700D03*
G01X2400Y6700D03*
G01X1400Y6700D03*
G01X9900Y14300D03*
G54D27*
G01X8700Y3300D03*
G01X6140Y3300D03*
G01X8700Y1528D03*
G01X6144Y1528D03*
G01X8700Y3300D03*
G01X6140Y3300D03*
G01X8700Y1528D03*
G01X6144Y1528D03*
G54D25*
G01X7800Y4300D03*
G01X5100Y2400D03*
G54D12*
G01X12900Y11300D03*
G01X9900Y11300D03*
G54D17*
G01X15500Y6700D03*
G54D18*
G01X16500Y6700D03*
G01X17500Y6700D03*
G01X18500Y6700D03*
G01X19500Y6700D03*
G01X20500Y6700D03*
G01X21500Y6700D03*
G01X22500Y6700D03*
G01X23500Y6700D03*
G01X24500Y6700D03*
G01X25500Y6700D03*
G01X26500Y6700D03*
G01X27500Y6700D03*
G01X28500Y6700D03*
G01X29600Y6700D03*
G01X15500Y12700D03*
G01X16500Y12700D03*
G01X17500Y12700D03*
G01X18500Y12700D03*
G01X19500Y12700D03*
G01X20500Y12700D03*
G01X21500Y12700D03*
G01X22500Y12700D03*
G01X23500Y12700D03*
G01X24500Y12700D03*
G01X25500Y12700D03*
G01X26500Y12700D03*
G01X27500Y12700D03*
G01X28500Y12700D03*
G01X29500Y12700D03*
G54D20*
G01X11619Y3800D03*
G54D21*
G01X13580Y3800D03*
G54D20*
G01X3980Y3900D03*
G54D21*
G01X2019Y3900D03*
G54D20*
G01X29980Y3800D03*
G54D21*
G01X28019Y3800D03*
G54D23*
G01X21100Y3700D03*
G54D12*
G01X22100Y3700D03*
G01X23100Y3700D03*
G01X24100Y3700D03*
G54D20*
G01X15819Y3800D03*
G54D21*
G01X17780Y3800D03*
G54D25*
G01X3400Y12700D03*
G01X2400Y12700D03*
G01X1400Y12700D03*
G01X4400Y12700D03*
G01X5400Y12700D03*
G01X6400Y12700D03*
G01X7400Y12700D03*
G01X8400Y12700D03*
G01X8400Y6700D03*
G01X7400Y6700D03*
G01X6400Y6700D03*
G01X5400Y6700D03*
G01X4400Y6700D03*
G01X3400Y6700D03*
G01X2400Y6700D03*
G01X1400Y6700D03*
G01X9900Y14300D03*
G54D27*
G01X8700Y3300D03*
G01X6140Y3300D03*
G01X8700Y1528D03*
G01X6144Y1528D03*
G01X8700Y3300D03*
G01X6140Y3300D03*
G01X8700Y1528D03*
G01X6144Y1528D03*
G54D25*
G01X7800Y4300D03*
G01X5100Y2400D03*
G01X9900Y14650D02*
G01X9900Y13950D01*
G01X10900Y14650D02*
G01X10900Y13950D01*
G01X11900Y14650D02*
G01X11900Y13950D01*
G01X12900Y14650D02*
G01X12900Y13950D01*
G01X13900Y14650D02*
G01X13900Y13950D01*
G01X14900Y14650D02*
G01X14900Y13950D01*
G01X15900Y14650D02*
G01X15900Y13950D01*
G01X16900Y14650D02*
G01X16900Y13950D01*
G01X17900Y14650D02*
G01X17900Y13950D01*
G01X18900Y14650D02*
G01X18900Y13950D01*
G01X19900Y14650D02*
G01X19900Y13950D01*

M00*
M02*